<svg width="121" height="122" viewBox="0 0 121 122" fill="none" xmlns="http://www.w3.org/2000/svg">
<g filter="url(#filter0_d_10_371)">
<rect x="1" y="1" width="111" height="112" rx="30" fill="url(#paint0_linear_10_371)"/>
</g>
<path d="M77 40V51.5986C76.9523 51.6229 76.9054 51.6504 76.8623 51.6777C76.7628 51.7409 76.6495 51.8242 76.5322 51.915C76.2959 52.0981 76.01 52.3411 75.7207 52.6006C75.1498 53.1128 74.5174 53.7319 74.207 54.1211C74.0556 54.311 73.9422 54.4968 73.8574 54.6719C72.9623 54.5017 72.0334 54.3245 71.1025 54.1484C68.6243 53.6797 66.1315 53.212 64.2324 52.8652C63.2835 52.692 62.4804 52.5478 61.9014 52.4492C61.6124 52.4 61.3757 52.3623 61.2041 52.3369C61.1189 52.3243 61.0457 52.3141 60.9883 52.3076C60.9599 52.3044 60.9302 52.3015 60.9033 52.2998C60.888 52.2988 60.8336 52.295 60.7744 52.3027H60.7734C60.6534 52.3188 60.5559 52.3714 60.5117 52.3965C60.4555 52.4284 60.4001 52.4667 60.3516 52.5029C60.2536 52.5759 60.1433 52.6703 60.0312 52.7715C59.8054 52.9755 59.5379 53.2396 59.2832 53.501C59.0273 53.7637 58.7775 54.0303 58.5869 54.2412C58.4921 54.3462 58.4093 54.4405 58.3467 54.5146C58.3158 54.5513 58.2859 54.5868 58.2617 54.6182C58.2563 54.6252 58.2416 54.6446 58.2236 54.6709L58.167 54.7686C58.0518 55.0159 58.0779 55.2889 58.2275 55.5088C58.3643 55.7096 58.5892 55.8484 58.8574 55.9473V55.9482C59.0091 56.0044 60.6534 56.6525 62.7344 57.4746H54.5V35.4746L37 43.25V57.5H54.5V79.8252C57.9721 78.7518 61.1058 76.7996 63.7393 74.2393C63.8202 74.2716 63.8982 74.3039 63.9736 74.334C64.0649 74.3704 64.1521 74.4048 64.2344 74.4375C64.1307 74.5897 64.0474 74.7127 63.9873 74.8018C63.951 74.8555 63.9232 74.8977 63.9043 74.9258C63.8951 74.9394 63.8876 74.9498 63.8828 74.957C63.8805 74.9604 63.8782 74.9639 63.877 74.9658L63.876 74.9678H63.875L64.2832 75.2266L63.875 74.9688L63.626 75.3418L63.9434 75.6162L63.9688 75.6377C63.6021 76.1181 63.0456 76.8578 63.0449 76.9375C63.0444 77.0592 63.8544 77.779 63.9502 77.7754C64.0133 77.7714 64.846 77.2189 65.3828 76.8594L65.4902 76.9521L65.7539 77.1797L66.0693 76.9844L65.8311 76.5625C66.0692 76.9844 66.0703 76.9844 66.0703 76.9844L66.0713 76.9834C66.072 76.9829 66.0731 76.9821 66.0742 76.9814C66.0775 76.9795 66.0827 76.9764 66.0889 76.9727C66.1017 76.9647 66.1217 76.9528 66.1465 76.9375C66.1964 76.9067 66.2694 76.8608 66.3633 76.8027C66.5106 76.7116 66.7089 76.589 66.9473 76.4414C67.0022 76.5209 67.0612 76.6066 67.124 76.6973C67.2764 76.917 67.4518 77.1663 67.6387 77.4346C63.9982 81.0846 59.497 83.7798 54.5 85C41.6 81.85 32 68.875 32 55V40L54.5 30L77 40ZM73.2715 62.3262C73.4082 62.4491 73.544 62.5712 73.6729 62.6875C72.0579 64.3183 70.6105 65.8727 68.9814 67.9326C68.4554 68.5977 67.9383 69.2783 67.4443 69.9395C67.4065 69.9349 67.3674 69.9306 67.3271 69.9258C68.9175 67.557 70.1681 64.9133 71.0088 62.1143C71.5333 62.387 72.0753 62.1526 72.4209 61.8643L72.4219 61.8652C72.4713 61.8243 72.5267 61.7715 72.5879 61.7158C72.799 61.9036 73.037 62.1154 73.2715 62.3262ZM68.6553 69.1387C68.7283 69.0436 68.8004 68.9475 68.874 68.8525L69.3633 68.2266C69.1247 68.5282 68.8893 68.8341 68.6553 69.1387ZM72.2256 61.3945C72.1867 61.4293 72.1525 61.4623 72.1211 61.4883C72.0541 61.5443 71.9832 61.5937 71.9102 61.6328L71.9092 61.6318C71.9822 61.5928 72.0531 61.5443 72.1201 61.4883C72.1516 61.4622 72.1855 61.4286 72.2246 61.3936L72.2256 61.3945ZM59.0596 55.4766C59.221 55.5363 60.9802 56.2292 63.1631 57.0918L63.1621 57.0928C60.9817 56.2312 59.2242 55.5386 59.0596 55.4775V55.4766ZM60.8984 52.8057C60.9079 52.8067 60.918 52.8082 60.9287 52.8096C60.9176 52.8082 60.9072 52.8068 60.8975 52.8057L60.8037 52.7998L60.8984 52.8057Z" fill="#FAFAFC"/>
<path d="M32 47.1611C27.2918 52.4564 23.519 57.8101 20.874 62.8564C18.4804 67.4232 17.0144 71.7272 16.6064 75.499C16.1987 79.2688 16.8479 82.4915 18.6611 84.9267C20.4746 87.3618 23.3055 88.8113 26.9033 89.3251C30.5029 89.8391 34.8563 89.4127 39.6816 88.1113C43.576 87.0608 47.7702 85.441 52.1142 83.2939C52.3391 83.3723 52.5658 83.4461 52.793 83.5185C48.2545 85.7961 43.8683 87.509 39.7998 88.6064C34.9354 89.9184 30.5145 90.3558 26.832 89.83C23.1481 89.3039 20.1857 87.8098 18.2734 85.2421C16.3615 82.6744 15.7027 79.3071 16.1201 75.4472C16.5375 71.5888 18.0315 67.2198 20.4443 62.6161C23.1781 57.4003 27.1 51.8686 32 46.415V47.1611ZM77.2461 16.4413C82.1103 15.1294 86.5305 14.6911 90.2129 15.2167C93.8967 15.7428 96.8591 17.2372 98.7715 19.8046C100.684 22.3723 101.342 25.7395 100.925 29.5995C100.507 33.4581 99.0145 37.8277 96.6015 42.4316C95.5057 44.5224 94.2171 46.6629 92.7529 48.83C93.0631 48.8576 93.3588 48.9297 93.6123 49.0693L93.7617 49.165L93.917 49.2919C94.2493 49.6088 94.3844 50.0512 94.4053 50.5048C94.4288 51.0173 94.3108 51.5925 94.1221 52.1601C93.7436 53.2982 93.0376 54.5361 92.3291 55.4482C90.4471 57.871 88.7216 59.5592 86.9922 61.1083C87.1458 61.538 87.3389 62.0776 87.5596 62.6962C87.5668 62.7166 87.5737 62.7372 87.581 62.7577C87.7208 62.618 87.8608 62.4833 87.9795 62.374C88.216 62.156 88.523 61.901 88.792 61.6982C88.9258 61.5973 89.0584 61.5022 89.1738 61.4306C89.2307 61.3953 89.2936 61.3599 89.3555 61.331C89.3958 61.3122 89.5164 61.2551 89.6572 61.2558L89.665 61.2568L89.7793 61.2695C89.8132 61.276 89.8424 61.2837 89.8642 61.29C89.9163 61.305 89.9717 61.3247 90.0264 61.3466C90.1362 61.3907 90.2655 61.4523 90.4043 61.5273C90.6822 61.6773 91.0196 61.893 91.3467 62.164L91.6172 62.4052C91.8724 62.6511 92.0818 62.9048 92.2383 63.1181C92.343 63.2609 92.4264 63.3902 92.4863 63.4911C92.516 63.5411 92.5414 63.5876 92.5615 63.6279C92.5714 63.6477 92.5822 63.6702 92.5918 63.6933C92.5961 63.7037 92.611 63.7448 92.6221 63.7978H92.624C92.6248 63.8017 92.6243 63.8067 92.625 63.8105C92.6257 63.8138 92.6282 63.8168 92.6289 63.8202H92.6269C92.6419 63.9142 92.6275 63.9917 92.6172 64.0312C92.6051 64.0776 92.5896 64.1141 92.5791 64.1357C92.5583 64.1784 92.5355 64.2124 92.5234 64.2294C92.4975 64.2661 92.4684 64.3001 92.4463 64.3251C92.3993 64.3785 92.3376 64.4425 92.2705 64.5097C92.1336 64.6466 91.9472 64.8237 91.7461 65.0097C91.4456 65.2876 91.0981 65.5979 90.8144 65.8388L90.5566 66.0527C90.3957 66.1815 90.098 66.3362 89.8105 66.4755C89.574 66.5901 89.3016 66.7114 89.0293 66.83C89.238 67.4179 89.4524 68.0173 89.665 68.6181C90.4297 70.7787 91.1929 72.9509 91.7637 74.6015C92.0488 75.4263 92.2867 76.1232 92.4521 76.624C92.5346 76.8737 92.5998 77.0785 92.6445 77.2265C92.6666 77.2996 92.6852 77.3639 92.6982 77.415C92.7046 77.4399 92.7116 77.4678 92.7168 77.495C92.7178 77.5002 92.7358 77.5796 92.7256 77.6699C92.7125 77.7841 92.6679 77.8778 92.6396 77.9306C92.6079 77.9897 92.5699 78.0442 92.5351 78.0908C92.4655 78.1841 92.3777 78.2822 92.2871 78.3769C92.104 78.5683 91.8687 78.7879 91.6367 78.995C91.4027 79.204 91.1626 79.4083 90.9697 79.5722C90.7686 79.7432 90.6343 79.8571 90.5869 79.9003C90.3082 80.1539 89.9649 80.1746 89.7392 80.1396C89.6185 80.1208 89.5008 80.0824 89.3974 80.0273C89.3005 79.9754 89.1801 79.8899 89.0996 79.7558C89.0978 79.753 89.093 79.7432 89.081 79.7245C89.0665 79.7019 89.0456 79.6701 89.0195 79.6298C88.9675 79.5493 88.8932 79.4361 88.8008 79.2939C88.6157 79.0089 88.3558 78.6092 88.0459 78.1337C87.6562 77.5359 87.186 76.8176 86.6855 76.0527C86.6402 76.0778 86.5995 76.1036 86.5615 76.123C86.1672 76.3241 85.552 76.4672 85.1045 76.0175L85.1035 76.0165C84.8655 75.7755 84.8212 75.4544 84.9082 75.1669C84.9879 74.9037 85.1686 74.6855 85.3633 74.5351L85.3672 74.5312C85.4253 74.4871 85.5034 74.4346 85.5889 74.3788C85.2543 73.8689 84.9187 73.3633 84.5996 72.8788C84.4567 72.9576 84.2673 73.0431 84.0576 73.08C83.7822 73.1283 83.4375 73.0978 83.164 72.829V72.8281C82.9399 72.6079 82.8843 72.3075 82.9463 72.0351C83.0059 71.7739 83.1687 71.5394 83.3828 71.3808C83.427 71.3479 83.4818 71.3113 83.54 71.2704C83.5152 71.233 83.4911 71.1957 83.4668 71.1591C83.1433 70.6728 82.8675 70.2609 82.6631 69.9609C82.5927 69.8576 82.5303 69.7685 82.4785 69.6943C82.3562 69.7789 82.2545 69.8524 82.1992 69.8876C82.0122 70.0067 81.7888 70.0701 81.5762 70.0781C81.3617 70.086 81.1173 70.0394 80.9092 69.8896V69.8906C80.6148 69.6802 80.569 69.3481 80.6172 69.0927C80.6623 68.8537 80.7914 68.631 80.9463 68.4745L80.9492 68.4716C80.9604 68.4605 80.9732 68.4494 80.9863 68.4374C80.745 68.2568 80.4922 68.0653 80.2402 67.8788C80.0721 67.7544 79.9043 67.6323 79.7432 67.5136C78.2042 68.8431 76.657 70.1051 74.9258 71.332C74.2752 71.7931 73.1873 72.5028 71.9961 73.2656C72.0202 73.3693 72.0464 73.4817 72.0742 73.6015C72.2243 74.2478 72.4249 75.1108 72.625 75.9775C72.825 76.8439 73.0246 77.715 73.1748 78.3769C73.2498 78.7078 73.3133 78.9883 73.3574 79.1894C73.3794 79.2895 73.3959 79.3726 73.4082 79.4325C73.4142 79.4621 73.4209 79.489 73.4248 79.5107C73.4267 79.521 73.4278 79.5335 73.4297 79.5458C73.4297 79.546 73.4359 79.5873 73.4355 79.6337C73.4341 79.7748 73.3747 79.879 73.3584 79.9072C73.3337 79.9497 73.3077 79.9837 73.291 80.0038C73.2567 80.0453 73.2187 80.0837 73.1875 80.1132C73.1222 80.1751 73.0372 80.2462 72.9473 80.3193C72.7646 80.4677 72.5253 80.6505 72.2842 80.8261C72.0426 81.002 71.792 81.1764 71.5889 81.3095C71.4882 81.3754 71.3925 81.4359 71.3125 81.4814C71.2732 81.5037 71.2293 81.5263 71.1865 81.5458C71.1659 81.5552 71.0692 81.6019 70.9541 81.6093C70.7998 81.6191 70.6927 81.5537 70.6758 81.5439C70.6391 81.5226 70.6104 81.5005 70.5947 81.4872C70.5617 81.4593 70.5319 81.4272 70.5088 81.4023C70.4602 81.3497 70.4014 81.2795 70.3389 81.2011C70.2119 81.0419 70.0436 80.8182 69.8506 80.5556C69.4628 80.0279 68.9625 79.3252 68.4697 78.6249C67.9765 77.9241 67.4885 77.2228 67.124 76.6972C67.0611 76.6065 67.0022 76.5208 66.9473 76.4413C66.7093 76.5888 66.5115 76.7116 66.3642 76.8027C66.2703 76.8608 66.1964 76.9066 66.1465 76.9374C66.1217 76.9527 66.1017 76.9647 66.0889 76.9726C66.0827 76.9764 66.0774 76.9794 66.0742 76.9814C66.0731 76.9821 66.072 76.9828 66.0713 76.9833L66.0703 76.9843C66.0693 76.9828 66.0544 76.9581 65.831 76.5624L66.0693 76.9843L65.7539 77.1796L65.4912 76.9521L65.3828 76.8593C64.8471 77.218 64.0174 77.77 63.9512 77.7763C63.8575 77.7823 63.0439 77.059 63.0449 76.9374C63.0456 76.8577 63.6021 76.1181 63.9687 75.6376L63.9433 75.6161L63.626 75.3427L63.875 74.9697L64.2832 75.2265L63.875 74.9687H63.876L63.8769 74.9658C63.8782 74.9638 63.8805 74.9603 63.8828 74.957C63.8876 74.9498 63.8951 74.9393 63.9043 74.9257C63.9231 74.8976 63.951 74.8555 63.9873 74.8017C64.0474 74.7126 64.1307 74.5897 64.2344 74.4374C64.1521 74.4047 64.0649 74.3703 63.9736 74.3339C63.3147 74.0711 62.4351 73.7189 61.5537 73.3593C60.6726 72.9999 59.7855 72.6314 59.1152 72.3398C58.7813 72.1945 58.496 72.0653 58.29 71.9648C58.1883 71.9151 58.0971 71.8682 58.0273 71.8271C57.9938 71.8073 57.9538 71.7824 57.917 71.7538C57.899 71.7399 57.8716 71.7169 57.8437 71.6865C57.8252 71.6662 57.759 71.594 57.7295 71.4765L57.7305 71.4755C57.6889 71.3084 57.7402 71.164 57.7607 71.1122C57.788 71.0435 57.8242 70.9828 57.8535 70.9374C57.9133 70.8448 57.9918 70.7465 58.0713 70.6542C58.2335 70.4657 58.449 70.244 58.6621 70.037C58.8766 69.8287 59.0989 69.6252 59.2783 69.4697C59.3672 69.3926 59.4504 69.3228 59.5195 69.2695C59.5534 69.2434 59.5908 69.216 59.6269 69.1923C59.6449 69.1806 59.67 69.1657 59.6973 69.1513C59.7175 69.1406 59.7722 69.112 59.8437 69.0956L59.9316 69.0829C59.9465 69.082 59.9592 69.081 59.9678 69.081C59.9851 69.081 60.0025 69.0823 60.0156 69.0829C60.0429 69.0842 60.0763 69.0869 60.1113 69.0898C60.1825 69.0956 60.2795 69.1043 60.3965 69.1161C60.6318 69.1401 60.9593 69.1761 61.3457 69.2197C62.1191 69.3068 63.1372 69.4259 64.1494 69.5458C65.162 69.6658 66.1708 69.7869 66.9258 69.8779C67.1159 69.9008 67.2902 69.9209 67.4443 69.9394C67.9382 69.2782 68.4554 68.5976 68.9814 67.9325C70.6105 65.8726 72.0579 64.3182 73.6728 62.6874C73.544 62.5712 73.4082 62.449 73.2715 62.3261C73.037 62.1153 72.7989 61.9035 72.5879 61.7158C72.5267 61.7715 72.4713 61.8242 72.4219 61.8652L72.4209 61.8642C72.0632 62.1626 71.4944 62.4046 70.9531 62.0849L70.9512 62.0839C70.6701 61.9156 70.5374 61.6339 70.5439 61.3378C70.5495 61.0912 70.6508 60.8597 70.7881 60.6747C70.5333 60.5722 70.2454 60.456 69.9307 60.33C69.6161 60.2041 69.2748 60.0686 68.914 59.9247C68.8619 59.979 68.8171 60.0288 68.7812 60.0644L68.7803 60.0654C68.6604 60.1835 68.4627 60.3524 68.2129 60.457C67.9792 60.5546 67.6893 60.597 67.3984 60.4843L67.2734 60.4257C66.7677 60.1473 66.7588 59.5665 66.9892 59.1601C66.5079 58.969 66.0154 58.7718 65.5215 58.5761C65.2521 58.4694 64.9826 58.3628 64.7148 58.2568C64.6291 58.3507 64.5599 58.4305 64.5195 58.4716C64.2232 58.7732 63.6901 58.9393 63.2363 58.7577C62.9136 58.6284 62.7779 58.3437 62.7549 58.0878C62.7374 57.8929 62.7819 57.6945 62.8603 57.5243C60.7212 56.6794 59.0136 56.007 58.8574 55.9491V55.9482C58.5892 55.8494 58.3643 55.7096 58.2275 55.5087C58.0779 55.2888 58.0518 55.0158 58.167 54.7685L58.2236 54.6718C58.2417 54.6453 58.2563 54.6252 58.2617 54.6181C58.2859 54.5867 58.3158 54.5512 58.3467 54.5146C58.4093 54.4404 58.4921 54.3461 58.5869 54.2411C58.7775 54.0302 59.0273 53.7636 59.2832 53.5009C59.5379 53.2395 59.8053 52.9754 60.0312 52.7714C60.1432 52.6703 60.2536 52.5759 60.3515 52.5029C60.4001 52.4667 60.4555 52.4284 60.5117 52.3964C60.5559 52.3714 60.6534 52.3188 60.7734 52.3027H60.7744C60.8336 52.295 60.8879 52.2987 60.9033 52.2997C60.9302 52.3014 60.9599 52.3044 60.9883 52.3075C61.0457 52.314 61.1189 52.3242 61.2041 52.3368C61.3756 52.3623 61.6124 52.4 61.9014 52.4491C62.4804 52.5477 63.2843 52.6919 64.2334 52.8652C66.1324 53.2119 68.6245 53.6797 71.1025 54.1484C72.0334 54.3244 72.9623 54.5017 73.8574 54.6718C73.9421 54.4967 74.0556 54.311 74.207 54.121C74.5174 53.7319 75.1498 53.1127 75.7207 52.6005C76.0099 52.341 76.2959 52.098 76.5322 51.915C76.6495 51.8241 76.7628 51.7408 76.8623 51.6777C76.9116 51.6464 76.9656 51.6143 77.0205 51.5878C77.0654 51.5662 77.1557 51.5262 77.2627 51.5146L77.3799 51.5097C77.4974 51.5116 77.6137 51.5331 77.7168 51.5595C77.8623 51.5968 78.0201 51.6543 78.1826 51.7275C78.5081 51.8741 78.878 52.0954 79.2432 52.3847L79.3779 52.497C79.681 52.7629 79.9066 53.057 80.0625 53.3134C80.1517 53.4601 80.2214 53.5989 80.2705 53.7187C80.3023 53.7963 80.3362 53.8918 80.3545 53.9872L80.3672 54.0829L80.3623 54.1904C80.3484 54.2903 80.311 54.3653 80.2978 54.3915C80.2708 54.4451 80.2386 54.4924 80.2129 54.5283C80.1603 54.6015 80.0938 54.68 80.0264 54.7548C79.8887 54.9074 79.7072 55.0907 79.5224 55.2695C79.3812 55.4061 79.2315 55.5428 79.0928 55.6708C79.4915 55.7475 79.8377 55.8139 80.1201 55.8681C80.2838 55.8995 80.4267 55.9265 80.5459 55.9491C83.0655 53.6057 85.0499 52.015 86.9336 50.8046C88.0455 50.0903 89.3922 49.465 90.6113 49.1152C91.1508 48.9604 91.6794 48.8552 92.1601 48.8251C93.6944 46.5763 95.0374 44.3558 96.1719 42.1913C98.5654 37.6246 100.03 33.3204 100.438 29.5488C100.846 25.7788 100.197 22.5552 98.3838 20.12C96.5702 17.6852 93.7394 16.2363 90.1416 15.7226C86.542 15.2087 82.1886 15.634 77.3633 16.9355C69.0012 19.191 59.2552 24.0681 49.6191 31.1689L47.5801 32.0741C57.8205 24.2277 68.3039 18.8532 77.2461 16.4413ZM71.3301 80.8993C71.1404 81.0234 70.9992 81.1057 70.958 81.1083L70.959 81.1093C71.001 81.1059 71.1412 81.0228 71.3301 80.8993ZM85.4932 75.0781C85.4914 75.0803 85.49 75.0827 85.4883 75.0849C85.5099 75.0563 85.5335 75.0282 85.5596 75.0019L85.4932 75.0781ZM59.5889 69.8378C59.3424 70.0514 59.0061 70.367 58.7275 70.6542C59.0058 70.3675 59.3416 70.0523 59.5879 69.8388L59.5889 69.8378ZM64.4043 70.0849C63.9423 70.03 63.4733 69.9758 63.0215 69.9228C63.4733 69.9758 63.9423 70.03 64.4043 70.0849ZM61.4619 69.7411C61.2952 69.7222 61.1379 69.7046 60.9922 69.6884C61.1379 69.7046 61.2952 69.7222 61.4619 69.7411ZM60.0351 69.5888C60.1383 69.5972 60.3066 69.6144 60.5254 69.6376C60.1673 69.5995 59.9445 69.5781 59.9209 69.5829L60.0351 69.5888ZM81.9551 69.4706C81.9071 69.5012 81.8505 69.5266 81.79 69.5449C81.8198 69.5359 81.8488 69.5258 81.876 69.5136C81.904 69.5011 81.9307 69.4871 81.9551 69.4716C81.9949 69.4463 82.0653 69.3942 82.1553 69.332H82.1543C82.065 69.3937 81.9949 69.4453 81.9551 69.4706ZM68.874 68.8525C68.8004 68.9475 68.7283 69.0435 68.6553 69.1386C68.8893 68.834 69.1247 68.5281 69.3633 68.2265L68.874 68.8525ZM81.4111 68.1093L81.4131 68.1083L80.5635 67.4745C80.851 67.6873 81.1402 67.9058 81.4111 68.1093ZM92.1162 63.9667C92.1183 63.964 92.1213 63.9623 92.123 63.9599C92.1323 63.9468 92.1376 63.9378 92.1367 63.9335H92.1357C92.1368 63.9386 92.1294 63.9495 92.1162 63.9667ZM72.1201 61.4882C71.986 61.6004 71.8369 61.684 71.6846 61.7177C71.7229 61.7093 71.7611 61.6979 71.7988 61.6835C71.8363 61.6692 71.8736 61.6523 71.9101 61.6327C71.9833 61.5937 72.0541 61.5443 72.1211 61.4882C72.1523 61.4624 72.186 61.4291 72.2246 61.3945V61.3935L72.1201 61.4882ZM71.206 60.9189C71.1814 60.9485 71.1593 60.9796 71.1396 61.0116L71.207 60.9189C71.2209 60.902 71.2381 60.8836 71.2568 60.8632H71.2558C71.2369 60.8835 71.2199 60.902 71.206 60.9189ZM68.2773 59.8613C68.3073 59.8388 68.3367 59.817 68.3633 59.7939L68.4297 59.7324H68.4277C68.3841 59.7741 68.3337 59.819 68.2773 59.8613ZM65.084 57.8534C65.8348 58.1507 66.5946 58.4539 67.3252 58.7441L67.3271 58.7421L65.7334 58.1083C65.5171 58.0226 65.3006 57.9369 65.0849 57.8515L65.084 57.8534ZM59.0596 55.4775C59.219 55.5366 60.8819 56.1914 62.9756 57.0185C60.88 56.1905 59.2162 55.5345 59.0596 55.4765V55.4775ZM60.9287 52.8095C60.918 52.8082 60.9079 52.8067 60.8984 52.8056L60.8037 52.7997C60.8193 52.7977 60.8616 52.8012 60.9287 52.8095Z" fill="#C4DBE9"/>
<path d="M71.58 72.5984L71.581 72.5994C71.5812 72.6002 71.5806 72.6017 71.5809 72.6033C71.5817 72.6066 71.5832 72.6121 71.5847 72.6186C71.5877 72.6316 71.5921 72.6507 71.5978 72.6754C71.6096 72.7257 71.6276 72.7997 71.6495 72.8937C71.6933 73.0819 71.7555 73.3515 71.8306 73.6746C71.9807 74.3208 72.1804 75.1838 72.3804 76.0503C72.5805 76.9169 72.781 77.7879 72.931 78.4494C73.0061 78.7802 73.069 79.0594 73.1129 79.2596C73.1348 79.3596 73.1523 79.4409 73.1643 79.4994C73.1703 79.5284 73.1748 79.5536 73.1783 79.5727C73.1799 79.5818 73.1816 79.5911 73.1829 79.5997C73.1833 79.6023 73.1866 79.6251 73.1864 79.6493C73.1856 79.7218 73.155 79.7764 73.1452 79.7934C73.1311 79.8176 73.1154 79.8376 73.1038 79.8517C73.0799 79.8806 73.0513 79.9101 73.0231 79.9368C72.9655 79.9914 72.8875 80.058 72.7993 80.1296C72.6217 80.274 72.3853 80.4529 72.1462 80.6269C71.9071 80.801 71.6612 80.973 71.4631 81.1027C71.3645 81.1673 71.2744 81.2235 71.2016 81.2648C71.1656 81.2852 71.1296 81.3044 71.0969 81.3193C71.0753 81.3291 71.0188 81.3554 70.9563 81.3594C70.8777 81.3644 70.8221 81.3308 70.8115 81.3247C70.7912 81.3129 70.7749 81.2998 70.7641 81.2906C70.7415 81.2716 70.7183 81.2482 70.6974 81.2256C70.6544 81.179 70.6001 81.1139 70.5384 81.0366C70.4142 80.8809 70.2478 80.6601 70.055 80.3978C69.6686 79.872 69.1689 79.1712 68.6762 78.471C68.1833 77.7706 67.6958 77.0695 67.3315 76.5441C67.1493 76.2814 66.9978 76.0626 66.8919 75.9093C66.839 75.8327 66.7981 75.7718 66.7698 75.7307C66.7557 75.7102 66.7444 75.6946 66.7371 75.684C66.7335 75.6787 66.7303 75.6745 66.7284 75.6718C66.7276 75.6706 66.727 75.6696 66.7265 75.669L66.7265 75.668L66.6342 75.5343L66.729 75.3897L68.2714 73.0167L68.3375 72.9139L68.4546 72.8947L71.3146 72.425L71.5312 72.3888L71.58 72.5984ZM59.9864 69.333C60.0097 69.3341 60.0392 69.3364 60.0731 69.3392C60.1419 69.3448 60.2376 69.3534 60.3544 69.3652C60.5884 69.389 60.9142 69.4246 61.3002 69.4681C62.073 69.5552 63.0902 69.6746 64.1026 69.7945C65.1149 69.9145 66.1227 70.0356 66.8777 70.1266C67.255 70.172 67.5695 70.2099 67.7894 70.2365C67.899 70.2498 67.9855 70.26 68.0443 70.2671C68.0737 70.2707 68.0972 70.2737 68.1124 70.2755C68.1196 70.2764 68.1252 70.2769 68.129 70.2774C68.1309 70.2776 68.1329 70.2779 68.1338 70.278L68.1348 70.278L68.4413 70.3161L68.316 70.611L67.551 72.4115L67.5292 72.4627L67.4889 72.5013L65.4493 74.4766L65.3275 74.5946L65.178 74.5358L65.1771 74.5358C65.1763 74.5355 65.1747 74.5347 65.1732 74.5341C65.1698 74.5328 65.1643 74.5309 65.1576 74.5283C65.1444 74.523 65.125 74.5148 65.0994 74.5047C65.048 74.4843 64.9722 74.4544 64.8762 74.4164C64.6841 74.3403 64.4097 74.2314 64.0802 74.1C63.4214 73.8372 62.5416 73.485 61.6605 73.1256C60.7799 72.7664 59.8962 72.3995 59.2285 72.109C58.8952 71.964 58.6132 71.8367 58.4116 71.7384C58.3115 71.6895 58.2265 71.6453 58.1644 71.6087C58.1342 71.5909 58.1039 71.5716 58.0782 71.5517C58.0656 71.5419 58.0487 71.528 58.0328 71.5107C58.0215 71.4983 57.9866 71.4599 57.9714 71.3994L57.9724 71.3984C57.95 71.3083 57.9771 71.2274 57.9918 71.1902C58.0099 71.1446 58.0356 71.1009 58.0601 71.0629C58.1098 70.9859 58.1788 70.8983 58.2552 70.8094C58.4097 70.63 58.6188 70.4153 58.8293 70.2108C59.0405 70.0056 59.2583 69.8058 59.4333 69.6541C59.5205 69.5785 59.5995 69.5127 59.6629 69.4639C59.6942 69.4397 59.7253 69.4168 59.7531 69.3986C59.7668 69.3896 59.783 69.3793 59.8001 69.3702C59.8137 69.363 59.8442 69.3483 59.8822 69.3396L59.9504 69.3324C59.9622 69.3323 59.975 69.3325 59.9864 69.333Z" fill="#FDFFFA" stroke="#1C5DD0" stroke-width="0.5"/>
<path d="M86.775 74.1334L87.5878 74.8538L87.8294 75.0678L87.5385 75.2551L87.5375 75.2552L87.5365 75.2562C87.5351 75.2571 87.5324 75.2588 87.5296 75.2605C87.5241 75.2641 87.5155 75.2691 87.5052 75.2758C87.4842 75.2891 87.4541 75.3086 87.417 75.3321C87.3425 75.3792 87.2399 75.4438 87.1271 75.5135C86.905 75.6508 86.6326 75.8154 86.4623 75.9023C86.1064 76.0838 85.627 76.1759 85.2872 75.8345L85.2862 75.8336C85.1145 75.6595 85.0833 75.4326 85.1465 75.2237C85.2061 75.0267 85.3447 74.8527 85.5054 74.7285L85.5074 74.7274C85.6373 74.6287 85.889 74.4718 86.0951 74.3465C86.2009 74.2822 86.2995 74.2241 86.3713 74.1815C86.4071 74.1603 86.4361 74.1422 86.4565 74.1303C86.4665 74.1244 86.4745 74.1202 86.48 74.1171C86.4827 74.1155 86.4854 74.1135 86.4868 74.1127L86.4878 74.1117L86.6464 74.0196L86.775 74.1334ZM84.6401 71.0065L85.483 71.6361L85.7597 71.8429L85.4521 72.047L85.4511 72.047L85.4501 72.0481C85.4489 72.0489 85.4466 72.0498 85.4443 72.0514C85.4395 72.0545 85.4326 72.0595 85.4237 72.0654C85.4056 72.0773 85.3792 72.095 85.3473 72.1161C85.2834 72.1582 85.1957 72.2153 85.1013 72.2771C84.9141 72.3998 84.6938 72.5432 84.5773 72.614L84.5763 72.6131C84.4433 72.6948 84.2471 72.7963 84.0328 72.834C83.8104 72.8731 83.5505 72.8458 83.3448 72.6435C83.184 72.4858 83.1437 72.2715 83.1891 72.0727C83.2333 71.8799 83.356 71.702 83.5218 71.5792L84.0324 71.2227C84.1205 71.1628 84.2013 71.1079 84.2597 71.0687C84.2888 71.0492 84.3129 71.0333 84.3293 71.0223C84.3374 71.0169 84.3436 71.0123 84.3479 71.0094C84.35 71.008 84.3517 71.0069 84.3528 71.0062L84.3538 71.0061L84.5047 70.9058L84.6401 71.0065ZM82.1893 67.9279C82.2124 67.9279 82.2328 67.9305 82.2467 67.933C82.2741 67.9379 82.2999 67.9457 82.3206 67.9527C82.3635 67.9673 82.413 67.9884 82.4623 68.011C82.5622 68.057 82.6847 68.1197 82.8007 68.1818C82.9175 68.2443 83.0313 68.3084 83.1157 68.356C83.1579 68.3798 83.193 68.3999 83.2175 68.4139C83.2294 68.4208 83.239 68.4259 83.2456 68.4297C83.2487 68.4315 83.2516 68.4331 83.2534 68.4341L83.2553 68.435L83.2563 68.4359L83.5809 68.6241L83.2545 68.8557L83.2545 68.8566C83.254 68.857 83.2525 68.8571 83.2516 68.8578C83.2497 68.8591 83.2472 68.8617 83.2437 68.8641C83.2366 68.8693 83.2257 68.8762 83.2124 68.8857C83.1854 68.9048 83.1467 68.9326 83.0997 68.966C83.0054 69.0329 82.8777 69.1236 82.7438 69.218C82.4799 69.4042 82.1815 69.6137 82.0774 69.68C81.9354 69.7705 81.7581 69.8219 81.5852 69.8284C81.411 69.835 81.2196 69.7958 81.0615 69.6812L81.0615 69.6802C80.8616 69.5361 80.8252 69.311 80.8609 69.122C80.8951 68.9407 80.9963 68.7666 81.1164 68.6451L81.1184 68.643C81.2264 68.5357 81.4681 68.3622 81.6577 68.2301C81.7577 68.1604 81.8521 68.0959 81.9213 68.0493C81.956 68.026 81.9848 68.0075 82.0046 67.9943C82.0143 67.9878 82.0219 67.9827 82.0272 67.9792C82.0295 67.9776 82.0317 67.9758 82.033 67.9749L82.035 67.9738L82.0575 67.9587L82.081 67.9494C82.1279 67.9299 82.1689 67.9279 82.1893 67.9279ZM72.1083 59.9255L73.1139 60.4384L73.4038 60.5868L73.1581 60.8338L73.1512 60.841C73.1467 60.8456 73.1401 60.8523 73.1316 60.8608C73.1145 60.8779 73.0893 60.9026 73.0589 60.9328C72.9981 60.9932 72.9145 61.0765 72.8221 61.1665C72.64 61.3436 72.4152 61.5575 72.2711 61.6768C71.9583 61.9382 71.5095 62.1136 71.0918 61.8669L71.0909 61.866C70.8832 61.7418 70.7888 61.5393 70.7937 61.3247C70.7983 61.1214 70.8897 60.9218 71.0197 60.7657C71.1215 60.6421 71.3274 60.4391 71.4955 60.2778C71.5824 60.1943 71.6639 60.1179 71.7233 60.0622C71.7531 60.0344 71.7781 60.0119 71.795 59.9962C71.8034 59.9884 71.8101 59.9825 71.8147 59.9783C71.8169 59.9763 71.8184 59.9742 71.8196 59.9731L71.8215 59.972L71.8215 59.9711L71.9561 59.8473L72.1083 59.9255ZM68.2211 58.3554L69.2383 58.764L69.5586 58.893L69.3078 59.1617L69.2852 59.1856C69.271 59.2009 69.2505 59.223 69.2252 59.2499C69.1747 59.3038 69.1046 59.3782 69.0296 59.4576C68.881 59.6148 68.7056 59.7981 68.6118 59.8911L68.6118 59.8921C68.5032 59.9992 68.3355 60.1408 68.1315 60.2261C67.919 60.315 67.6598 60.3439 67.4051 60.204C66.9938 59.9777 67.0271 59.4628 67.2828 59.1558C67.3806 59.0381 67.5461 58.8539 67.6833 58.7028C67.7525 58.6266 67.8163 58.5571 67.8623 58.507C67.8851 58.4822 67.9035 58.4619 67.9164 58.4479C67.9228 58.441 67.9277 58.4351 67.9311 58.4314C67.9327 58.4296 67.9342 58.4282 67.9351 58.4272L67.937 58.4261L68.0609 58.2914L68.2211 58.3554ZM64.1348 56.6095C64.1808 56.6141 64.2357 56.6236 64.2904 56.6347C64.4013 56.6573 64.539 56.6911 64.6704 56.7257C64.803 56.7607 64.9334 56.7973 65.03 56.8249C65.0782 56.8387 65.1185 56.8503 65.1466 56.8585C65.1603 56.8625 65.1711 56.8659 65.1786 56.8681L65.1903 56.8713L65.5478 56.9784L65.2841 57.2723L65.2841 57.2733L65.2822 57.2744C65.2808 57.276 65.2789 57.2786 65.2763 57.2816C65.2706 57.288 65.2614 57.2976 65.2507 57.3096C65.2293 57.3335 65.1986 57.3683 65.1612 57.4099C65.0864 57.4932 64.9851 57.6059 64.8789 57.7236C64.6689 57.9562 64.4314 58.2169 64.3478 58.302C64.1214 58.5324 63.6987 58.6659 63.3435 58.5239C63.1179 58.4336 63.0209 58.2368 63.0039 58.0478C62.9877 57.8675 63.0397 57.6781 63.1273 57.5324C63.1703 57.4608 63.2415 57.3705 63.3116 57.2874C63.3852 57.2001 63.47 57.1047 63.5497 57.0176C63.6296 56.9301 63.7062 56.8492 63.7621 56.7903C63.7898 56.7611 63.8129 56.7374 63.8289 56.7207L63.8535 56.6947L63.8702 56.6771L63.8888 56.6642C63.9335 56.6313 63.977 56.619 63.9974 56.6143C64.0209 56.6089 64.0415 56.6074 64.0559 56.6067C64.0845 56.6053 64.1125 56.6073 64.1348 56.6095ZM77.2716 51.7641C77.3852 51.7518 77.513 51.7701 77.6385 51.8022C77.7683 51.8355 77.914 51.8882 78.0677 51.9574C78.3751 52.096 78.7291 52.3071 79.081 52.586L79.2067 52.6902C79.4899 52.9386 79.7006 53.2144 79.8467 53.4547C79.9303 53.5921 79.9941 53.7202 80.0382 53.828C80.079 53.9277 80.1124 54.0324 80.1175 54.1158C80.1225 54.1972 80.0903 54.2647 80.077 54.2911C80.059 54.3269 80.0364 54.3615 80.0148 54.3917C79.9709 54.4527 79.9123 54.5226 79.8474 54.5946C79.7161 54.7402 79.5393 54.9179 79.3559 55.0953C78.9888 55.4505 78.5774 55.821 78.4044 55.9688C78.2458 56.1042 77.9431 56.3987 77.6726 56.6673C77.5389 56.7999 77.4155 56.9246 77.3257 57.0153C77.2809 57.0605 77.2438 57.097 77.2185 57.1226C77.206 57.1354 77.1967 57.146 77.19 57.1527C77.1868 57.1561 77.1838 57.1584 77.1822 57.1601L77.1802 57.1621L77.0505 57.2943L76.8933 57.2233L74.0108 55.9309L73.9002 55.8813L73.8798 55.7596L73.8799 55.7567C73.8797 55.7558 73.8791 55.755 73.8789 55.7539C73.8785 55.7513 73.8785 55.7478 73.878 55.7441C73.8771 55.7367 73.8755 55.727 73.8744 55.7151C73.8722 55.6914 73.8706 55.6589 73.8704 55.6187C73.8699 55.5382 73.8761 55.426 73.9025 55.2907C73.9556 55.0186 74.0883 54.6564 74.3975 54.2686C74.6925 53.8988 75.3093 53.2925 75.8785 52.7818C76.1652 52.5246 76.4462 52.286 76.6754 52.1084C76.7896 52.02 76.895 51.9433 76.9842 51.8868C77.0285 51.8586 77.0732 51.8333 77.1154 51.813C77.1524 51.7952 77.2091 51.7708 77.2716 51.7641Z" fill="#C4DBE9" stroke="#1C5DD0" stroke-width="0.5"/>
<path d="M74.9624 55.7365C74.9624 55.7365 77.2318 53.2156 77.8318 53.5343C78.4375 53.8552 75.9867 56.0511 75.9867 56.0511L74.9624 55.7365Z" fill="#C8C8C8"/>
<path d="M74.4486 55.6173C74.4486 55.6173 75.732 54.4195 75.8741 54.2333C76.0161 54.0471 75.8897 53.7894 75.7768 53.6498C75.6639 53.5127 75.4887 53.4681 75.4887 53.4681C75.4887 53.4681 74.5838 54.2217 74.271 54.8515C74.0268 55.3404 74.0656 55.5784 74.0656 55.5784L74.4486 55.6173ZM76.6363 56.0528C76.6363 56.0528 77.1232 55.589 77.3677 55.4013C77.5887 55.2329 77.9135 55.2274 78.1058 55.3139C78.3536 55.4247 78.4102 55.6388 78.4102 55.6388L77.5071 56.5188L76.6363 56.0528Z" fill="#FFFCFC"/>
<path d="M89.6416 61.5071C89.6916 61.5083 89.7414 61.5205 89.7797 61.5315C89.8222 61.5438 89.8696 61.5602 89.9196 61.5802C90.0197 61.6204 90.1405 61.6781 90.2736 61.75C90.54 61.8938 90.8652 62.1011 91.1799 62.3619L91.437 62.5925C91.6809 62.8274 91.8821 63.0703 92.0329 63.2758C92.1336 63.413 92.2134 63.5354 92.2694 63.6297C92.2972 63.6765 92.3204 63.7182 92.3375 63.7522C92.3459 63.769 92.3537 63.7864 92.3604 63.8025C92.3642 63.8117 92.3723 63.8366 92.3784 63.8658L92.3803 63.8657C92.3807 63.8675 92.3799 63.8697 92.3803 63.8715C92.3806 63.8735 92.3818 63.8753 92.3822 63.8773L92.3802 63.8774C92.3879 63.925 92.3817 63.9645 92.3763 63.985C92.37 64.009 92.3621 64.0282 92.3564 64.0399C92.3451 64.0632 92.332 64.082 92.3238 64.0937C92.3063 64.1184 92.2846 64.1441 92.2647 64.1668C92.2233 64.2137 92.1665 64.2731 92.1005 64.3392C91.9672 64.4725 91.7838 64.6468 91.5838 64.8318C91.1848 65.2007 90.7077 65.6234 90.4097 65.8619C90.2773 65.9679 90.0085 66.1092 89.7147 66.2516C89.4097 66.3994 89.0444 66.5631 88.6938 66.7117C88.3437 66.8601 88.0043 66.9953 87.7505 67.087C87.6248 67.1324 87.5133 67.1692 87.4311 67.1912C87.3926 67.2015 87.347 67.2121 87.3052 67.2158C87.2879 67.2173 87.2455 67.2204 87.1991 67.2079C87.1747 67.2013 87.1321 67.1862 87.0935 67.1482C87.0489 67.1042 87.0223 67.0418 87.0229 66.9741L87.023 66.9624L87.024 66.9623C87.0239 66.9624 87.0231 66.9206 87.0194 66.8221C87.016 66.7318 87.0106 66.6081 87.004 66.4629C86.991 66.1728 86.973 65.7966 86.9548 65.4237C86.9365 65.0508 86.9183 64.6812 86.9043 64.4051C86.8974 64.2672 86.8909 64.1526 86.8868 64.0724C86.8848 64.0323 86.8829 64.0005 86.8818 63.979C86.8812 63.9684 86.8813 63.9602 86.881 63.9547C86.8809 63.9519 86.8812 63.9493 86.8811 63.9478L86.8801 63.9469L86.8753 63.835L86.9549 63.7499L86.9569 63.7478C86.9583 63.7463 86.96 63.7436 86.9628 63.7406C86.9684 63.7347 86.9767 63.7259 86.9874 63.7147C87.0086 63.6923 87.0396 63.6601 87.0778 63.6201C87.1545 63.5397 87.2613 63.4279 87.3816 63.3041C87.6209 63.0578 87.9186 62.7573 88.1402 62.5532C88.3698 62.3415 88.6699 62.0925 88.932 61.8948C89.0627 61.7962 89.1882 61.7069 89.2937 61.6415C89.3459 61.609 89.3981 61.5791 89.4464 61.5566C89.4838 61.5392 89.558 61.5069 89.6377 61.5074L89.6416 61.5071Z" fill="#C4DBE9" stroke="#144FB7" stroke-width="0.5"/>
<path d="M87.5417 65.3191C87.5417 65.3191 89.6849 63.1681 90.1676 63.5146C90.6503 63.861 87.7114 66.3157 87.7114 66.3157L87.5417 65.3191Z" fill="#C8C8C8"/>
<path d="M87.3881 64.8226L88.1704 64.0338C88.4479 63.7555 88.4334 63.4071 88.3528 63.2604C88.2491 63.0721 87.9772 63.0438 87.9772 63.0438L86.959 64.0374L87.3881 64.8226ZM88.1081 66.4499C88.1081 66.4499 89.3344 65.4228 89.5436 65.2602C89.7528 65.0975 90.0904 64.9698 90.3554 65.1124C90.5534 65.2187 90.64 65.3575 90.64 65.3575C90.64 65.3575 89.6954 66.2984 89.1276 66.6458C88.7716 66.8633 87.9333 67.0279 87.9333 67.0279L88.1081 66.4499Z" fill="#FFFCFC"/>
<path d="M86.3656 60.1133L86.3656 60.1142L86.3666 60.1161C86.3673 60.1182 86.3689 60.1215 86.3704 60.1256C86.3733 60.1338 86.3771 60.1461 86.3827 60.1619C86.3943 60.1944 86.4116 60.2433 86.434 60.3061C86.479 60.4316 86.5452 60.6156 86.6289 60.85C86.7966 61.319 87.0365 61.9895 87.3238 62.7948C87.8983 64.4056 88.6635 66.5566 89.4281 68.717C90.1928 70.8775 90.9566 73.0483 91.5271 74.6981C91.8122 75.5228 92.0496 76.2183 92.2145 76.7176C92.2968 76.9667 92.3621 77.1683 92.406 77.3134C92.4278 77.3856 92.4452 77.4464 92.457 77.4927C92.4628 77.5155 92.4682 77.538 92.472 77.5581C92.4735 77.5662 92.4825 77.6112 92.477 77.6593C92.4693 77.7259 92.4433 77.784 92.4219 77.8238C92.3988 77.867 92.37 77.9099 92.34 77.9501C92.28 78.0304 92.2009 78.1192 92.1137 78.2104C91.9382 78.3939 91.7087 78.6072 91.4781 78.813C91.2468 79.0195 91.0099 79.2224 90.8176 79.3859C90.621 79.553 90.479 79.6727 90.4269 79.7201C90.2309 79.8986 89.9796 79.9206 89.7952 79.892C89.6989 79.8771 89.6057 79.8472 89.5262 79.8047C89.45 79.764 89.3687 79.7028 89.3165 79.616C89.3165 79.616 89.3152 79.6127 89.3107 79.6056C89.3065 79.599 89.3008 79.5899 89.2934 79.5784C89.2787 79.5554 89.258 79.5232 89.2319 79.4828C89.1798 79.4021 89.1053 79.2887 89.0128 79.1463C88.8276 78.8612 88.5675 78.4618 88.2574 77.9861C87.6373 77.0347 86.8164 75.7771 85.9883 74.5144C85.1602 73.2515 84.325 71.9836 83.6776 71.0101C83.3538 70.5233 83.0772 70.1104 82.8719 69.8092C82.7693 69.6586 82.6851 69.5365 82.6219 69.4474C82.5903 69.4028 82.5646 69.3674 82.5449 69.341C82.535 69.3278 82.5268 69.3178 82.5208 69.3103C82.5157 69.3039 82.5136 69.3006 82.5131 69.3001C82.4866 69.2716 82.4069 69.202 82.2714 69.0929C82.1411 68.988 81.9708 68.8553 81.7742 68.7049C81.3807 68.4039 80.8849 68.0339 80.3982 67.6739C79.9115 67.3138 79.4343 66.9642 79.0791 66.7046C78.9018 66.5751 78.755 66.4679 78.6523 66.3931C78.601 66.3558 78.5607 66.3259 78.5332 66.306C78.5195 66.296 78.5084 66.2888 78.5013 66.2836C78.498 66.2812 78.4953 66.2796 78.4935 66.2783C78.4927 66.2777 78.4921 66.2768 78.4916 66.2764L78.3097 66.1445L78.44 65.943L81.0597 61.9145L81.1091 61.8382L81.1931 61.8065L86.058 59.9786L86.2867 59.8928L86.3656 60.1133ZM60.7895 52.5514C60.8226 52.5471 60.8552 52.5492 60.8703 52.5501C60.8917 52.5515 60.9168 52.5532 60.9433 52.5562C60.9967 52.5622 61.0666 52.5716 61.1506 52.584C61.3196 52.6091 61.5536 52.6481 61.8421 52.6972C62.4198 52.7955 63.2222 52.938 64.1713 53.1113C66.0697 53.4579 68.5615 53.9256 71.0397 54.3943C73.518 54.8631 75.9834 55.333 77.8291 55.6863C78.7518 55.8629 79.5196 56.0105 80.0569 56.1136C80.3254 56.1652 80.5364 56.2064 80.6802 56.2341C80.7521 56.2479 80.8074 56.2584 80.8445 56.2656C80.8629 56.2691 80.8769 56.2719 80.8864 56.2737C80.8908 56.2745 80.8947 56.2745 80.8971 56.2749C80.8981 56.2751 80.8994 56.2756 80.9 56.2757L80.9009 56.2757L81.0731 56.3086L81.0861 56.4854L81.0861 56.4923C81.0864 56.4965 81.0872 56.5027 81.0878 56.5107C81.0891 56.5274 81.0907 56.5524 81.093 56.5836C81.0977 56.646 81.1049 56.7354 81.1132 56.8429C81.1296 57.0578 81.1521 57.3454 81.1753 57.6363C81.1985 57.9276 81.2219 58.2222 81.2422 58.4499C81.2523 58.5639 81.2615 58.6605 81.2689 58.7313C81.2726 58.7665 81.2763 58.7939 81.2789 58.8136C81.2793 58.8167 81.2785 58.82 81.2788 58.8224L81.2881 58.8764C81.2911 58.9273 81.2772 58.9682 81.2696 58.9879C81.2581 59.0175 81.2438 59.0393 81.2359 59.0506C81.2198 59.0736 81.203 59.0916 81.1936 59.1011C81.1726 59.1221 81.1467 59.1437 81.1229 59.1631C81.0733 59.2036 81.0038 59.2564 80.9199 59.3176C80.7504 59.4412 80.5085 59.6108 80.2201 59.809C79.6423 60.2062 78.869 60.7253 78.0967 61.2401C77.3243 61.755 76.5507 62.2663 75.9706 62.6489C75.6806 62.8403 75.4384 62.9999 75.2691 63.1113C75.1848 63.1667 75.1185 63.2101 75.0732 63.2399C75.0505 63.2548 75.033 63.2667 75.0212 63.2744C75.0154 63.2782 75.0105 63.2811 75.0075 63.2831C75.0062 63.2839 75.0053 63.2847 75.0046 63.2852L75.0036 63.2863L74.839 63.3943L74.7028 63.2702L74.7018 63.2683C74.7006 63.2673 74.6983 63.266 74.696 63.2638C74.6914 63.2597 74.6845 63.2536 74.6757 63.2456C74.6576 63.2292 74.6304 63.2043 74.5965 63.1735C74.5286 63.112 74.4313 63.0241 74.3143 62.9182C74.0799 62.7062 73.7658 62.422 73.4455 62.1341C73.1251 61.846 72.7984 61.5544 72.541 61.3269C72.4122 61.2132 72.3015 61.1154 72.2172 61.043C72.1749 61.0067 72.1394 60.9779 72.1127 60.9559C72.0994 60.945 72.089 60.936 72.0808 60.9296C72.0766 60.9264 72.074 60.9238 72.0721 60.9224C72.0848 60.9306 72.0876 60.9313 72.0507 60.915C72.0234 60.9028 71.984 60.8852 71.9333 60.8639C71.8322 60.8213 71.6886 60.7624 71.5082 60.6889C71.1472 60.5417 70.6407 60.338 70.0368 60.0963C68.8292 59.6129 67.2322 58.9777 65.6272 58.3417C64.0209 57.7052 62.4082 57.0685 61.1699 56.5804L58.9586 55.7128C58.7128 55.6224 58.5368 55.5045 58.4368 55.3575C58.3303 55.2012 58.3175 55.0196 58.3915 54.8607L58.4556 54.762C58.4762 54.7353 58.502 54.7033 58.5315 54.6683C58.5913 54.5974 58.6727 54.5055 58.7666 54.4016C58.9547 54.1934 59.2014 53.93 59.4549 53.6698C59.708 53.4099 59.9711 53.1499 60.1908 52.9515C60.3001 52.8528 60.4033 52.7656 60.4911 52.7001C60.5347 52.6677 60.5788 52.637 60.6214 52.6128C60.6579 52.592 60.7192 52.5607 60.7885 52.5514L60.7895 52.5514Z" fill="#FDFFFA" stroke="#1C5DD0" stroke-width="0.5"/>
<path d="M76.8752 60.4694C76.8752 60.4694 73.9285 58.1738 73.7072 58.0487C73.4859 57.9261 59.6147 53.842 59.6147 53.842L59.039 54.4228C59.039 54.4228 73.0989 58.6796 73.3231 58.802C73.5474 58.9245 76.2866 61.1953 76.2866 61.1953L76.8752 60.4694ZM81.4011 64.5326C81.4011 64.5326 84.6406 67.7992 84.8348 68.0122C85.0289 68.2251 90.6642 79.1958 90.6642 79.1958L91.2392 78.6986C91.2392 78.6986 85.6118 67.4971 85.5107 67.3466C85.4096 67.1961 81.6366 63.366 81.6366 63.366L81.4011 64.5326Z" fill="#C4D9F0"/>
<path d="M64.2833 75.2262C64.2833 75.2262 63.0462 76.8184 63.0451 76.9374C63.0441 77.059 63.857 77.7818 63.9507 77.7758C64.0443 77.7699 65.834 76.5576 65.834 76.5576L65.5949 75.4743L64.2833 75.2262Z" fill="#C4DBE9"/>
<path d="M92.332 49.0681C92.8274 49.0572 93.2798 49.1391 93.6072 49.3725L93.6082 49.3725C93.9788 49.6376 94.1343 50.0619 94.1561 50.5342C94.1777 51.0036 94.0695 51.5449 93.8861 52.0963C93.5188 53.2009 92.8291 54.4119 92.1367 55.3033C89.0478 59.28 86.3977 61.2572 83.4012 63.9437C80.4352 66.6018 77.9116 68.9201 74.7925 71.1305C73.7398 71.8768 71.5263 73.2898 69.5827 74.5116C68.6094 75.1236 67.7008 75.6888 67.0362 76.1014C66.704 76.3076 66.4323 76.4755 66.2439 76.5919C66.1497 76.6501 66.0763 76.696 66.0264 76.7268C66.0016 76.7421 65.9824 76.7537 65.9696 76.7616C65.9632 76.7656 65.9582 76.7683 65.955 76.7704C65.9537 76.7711 65.9528 76.772 65.952 76.7725L65.951 76.7735L65.9501 76.7736L65.7924 76.8715L65.6609 76.7578L64.1132 75.4205L63.9547 75.2842L64.0791 75.0977L64.0791 75.0967L64.0801 75.0967L64.081 75.0947C64.0823 75.0928 64.0846 75.0901 64.087 75.0865C64.0917 75.0794 64.0985 75.0687 64.1077 75.0549C64.1264 75.0269 64.1543 74.9853 64.1906 74.9315C64.2631 74.824 64.3695 74.6664 64.5054 74.4675C64.7772 74.0695 65.1672 73.5046 65.639 72.8358C66.5823 71.4985 67.8553 69.7441 69.1719 68.0797C71.8805 64.6548 74.0768 62.6352 77.4235 59.3003C81.6338 55.1061 84.4482 52.689 87.0569 51.0128C88.1485 50.3115 89.4713 49.6978 90.6638 49.3557C91.2599 49.1846 91.8322 49.079 92.332 49.0681Z" fill="#FEFFFF" stroke="#144FB7" stroke-width="0.5"/>
<path d="M87.8116 51.6217L88.6161 52.3097C88.6161 52.3097 89.9845 51.0913 90.9929 51.87C92.0275 52.6673 90.5793 53.9844 90.5793 53.9844L91.4472 54.7746C91.4472 54.7746 93.842 52.2989 91.9172 50.9102C90.2425 49.7005 87.8116 51.6217 87.8116 51.6217Z" fill="#1B5FCE"/>
<path d="M71.2528 68.6073C70.8723 68.9453 66.3703 73.7975 66.1191 74.0843C65.7969 74.4541 65.6468 74.8838 66.0046 75.1192C66.3625 75.3521 66.7541 75.0741 67.1101 74.8464C67.5574 74.5624 72.7624 70.2881 73.1073 69.9928C73.6616 69.5172 73.7623 68.716 73.1866 68.3021C72.5528 67.8463 71.8308 68.0947 71.2528 68.6073Z" fill="#C4DBE9"/>
<path d="M71.1009 67.5817C70.8479 67.408 70.5306 67.5547 70.1941 67.8874C69.9048 68.1766 69.7693 68.6054 70.0547 68.7568C70.3401 68.9083 70.7229 68.6359 70.9623 68.3701C71.2016 68.1068 71.3859 67.7787 71.1009 67.5817ZM71.9395 66.0553C71.6737 66.3329 71.2864 66.7878 71.6438 67.0714C71.9954 67.3502 72.5345 66.9337 72.7707 66.6909C73.004 66.4483 75.6772 63.5904 79.0549 60.4801C82.353 57.4408 84.5704 55.5104 84.9128 55.1747C85.202 54.8906 85.1794 54.4693 84.9288 54.3511C84.6316 54.2106 84.2999 54.3329 83.8869 54.7135C83.4739 55.0941 80.6732 57.4716 78.0298 59.9328C75.3864 62.394 72.2703 65.7078 71.9395 66.0553Z" fill="#DFDFDF"/>
<path d="M88.197 59.3321C88.197 59.3321 88.0443 58.4003 87.3648 58.813C86.6352 59.2568 87.1673 60.3012 87.1673 60.3012C87.1673 60.3012 87.4415 60.0636 87.7337 59.7817C87.9756 59.5512 88.1173 59.4157 88.197 59.3321ZM85.5807 61.7131C85.5807 61.7131 85.4771 60.5124 84.7057 61.0575C84.0903 61.494 84.4956 62.6553 84.4956 62.6553C84.4956 62.6553 84.8493 62.357 85.0793 62.155C85.3123 61.9504 85.5807 61.7131 85.5807 61.7131ZM83.086 63.9016C83.086 63.9016 83.007 62.9044 82.3161 63.2798C81.6251 63.6553 82.0743 64.8113 82.0743 64.8113C82.0743 64.8113 82.3809 64.5539 82.5874 64.3636C82.7939 64.1733 83.086 63.9016 83.086 63.9016ZM80.2606 66.425C80.2606 66.425 80.2167 65.4306 79.5381 65.7395C78.833 66.0602 79.2433 67.3123 79.2433 67.3123C79.2433 67.3123 79.5883 67.0144 79.7799 66.8479C79.9745 66.6836 80.2606 66.425 80.2606 66.425Z" fill="#3B5361"/>
<defs>
<filter id="filter0_d_10_371" x="0" y="0" width="121" height="122" filterUnits="userSpaceOnUse" color-interpolation-filters="sRGB">
<feFlood flood-opacity="0" result="BackgroundImageFix"/>
<feColorMatrix in="SourceAlpha" type="matrix" values="0 0 0 0 0 0 0 0 0 0 0 0 0 0 0 0 0 0 127 0" result="hardAlpha"/>
<feOffset dx="4" dy="4"/>
<feGaussianBlur stdDeviation="2.5"/>
<feComposite in2="hardAlpha" operator="out"/>
<feColorMatrix type="matrix" values="0 0 0 0 0 0 0 0 0 0 0 0 0 0 0 0 0 0 0.25 0"/>
<feBlend mode="normal" in2="BackgroundImageFix" result="effect1_dropShadow_10_371"/>
<feBlend mode="normal" in="SourceGraphic" in2="effect1_dropShadow_10_371" result="shape"/>
</filter>
<linearGradient id="paint0_linear_10_371" x1="15.5" y1="6" x2="102" y2="104" gradientUnits="userSpaceOnUse">
<stop stop-color="#3889E4"/>
<stop offset="1" stop-color="#1755CC"/>
</linearGradient>
</defs>
</svg>
