<svg width="86" height="76" viewBox="0 0 86 76" fill="none" xmlns="http://www.w3.org/2000/svg">
<path d="M61.0001 25.0001V36.5988C60.9523 36.623 60.9054 36.6506 60.8624 36.6779C60.7628 36.741 60.6496 36.8243 60.5323 36.9152C60.296 37.0982 60.01 37.3412 59.7208 37.6007C59.1499 38.1129 58.5174 38.7321 58.2071 39.1212C58.0557 39.3111 57.9422 39.4969 57.8575 39.672C56.9624 39.5018 56.0335 39.3246 55.1026 39.1486C52.6244 38.6798 50.1316 38.2121 48.2325 37.8654C47.2836 37.6921 46.4804 37.5479 45.9014 37.4493C45.6125 37.4002 45.3757 37.3625 45.2042 37.337C45.119 37.3244 45.0458 37.3142 44.9883 37.3077C44.9599 37.3045 44.9303 37.3016 44.9034 37.2999C44.888 37.2989 44.8337 37.2952 44.7745 37.3029H44.7735C44.6535 37.319 44.5559 37.3715 44.5118 37.3966C44.4556 37.4286 44.4002 37.4669 44.3516 37.5031C44.2537 37.576 44.1433 37.6705 44.0313 37.7716C43.8054 37.9756 43.5379 38.2397 43.2833 38.5011C43.0273 38.7638 42.7776 39.0304 42.587 39.2413C42.4921 39.3463 42.4093 39.4406 42.3467 39.5148C42.3158 39.5514 42.286 39.5869 42.2618 39.6183C42.2563 39.6254 42.2416 39.6447 42.2237 39.671L42.1671 39.7687C42.0519 40.016 42.0779 40.289 42.2276 40.5089C42.3644 40.7098 42.5893 40.8486 42.8575 40.9474V40.9484C43.0092 41.0045 44.6535 41.6526 46.7344 42.4747H38.5001V20.4747L21.0001 28.2501V42.5001H38.5001V64.8253C41.9722 63.7519 45.1058 61.7997 47.7393 59.2394C47.8202 59.2717 47.8982 59.304 47.9737 59.3341C48.065 59.3705 48.1522 59.4049 48.2344 59.4376C48.1307 59.5899 48.0474 59.7128 47.9874 59.8019C47.9511 59.8557 47.9232 59.8978 47.9044 59.9259C47.8952 59.9395 47.8877 59.95 47.8829 59.9572C47.8806 59.9606 47.8783 59.964 47.877 59.9659L47.876 59.9679H47.8751L48.2833 60.2267L47.8751 59.9689L47.626 60.3419L47.9434 60.6163L47.9688 60.6378C47.6022 61.1182 47.0457 61.8579 47.045 61.9376C47.0445 62.0594 47.8545 62.7791 47.9503 62.7755C48.0134 62.7715 48.8461 62.219 49.3829 61.8595L49.4903 61.9523L49.754 62.1798L50.0694 61.9845L49.8311 61.5626C50.0693 61.9845 50.0703 61.9845 50.0704 61.9845L50.0714 61.9835C50.072 61.983 50.0732 61.9823 50.0743 61.9816C50.0775 61.9796 50.0828 61.9766 50.0889 61.9728C50.1018 61.9648 50.1217 61.9529 50.1465 61.9376C50.1965 61.9068 50.2695 61.8609 50.3633 61.8029C50.5107 61.7118 50.709 61.5891 50.9473 61.4415C51.0023 61.521 51.0612 61.6067 51.1241 61.6974C51.2764 61.9171 51.4519 62.1665 51.6387 62.4347C47.9982 66.0847 43.4971 68.7799 38.5001 70.0001C25.6001 66.8501 16.0001 53.8751 16.0001 40.0001V25.0001L38.5001 15.0001L61.0001 25.0001ZM57.2715 47.3263C57.4082 47.4492 57.544 47.5713 57.6729 47.6876C56.0579 49.3184 54.6106 50.8728 52.9815 52.9327C52.4554 53.5978 51.9383 54.2784 51.4444 54.9396C51.4065 54.935 51.3674 54.9307 51.3272 54.9259C52.9176 52.5571 54.1682 49.9134 55.0089 47.1144C55.5334 47.3871 56.0754 47.1527 56.421 46.8644L56.4219 46.8654C56.4713 46.8244 56.5268 46.7717 56.588 46.7159C56.799 46.9037 57.0371 47.1155 57.2715 47.3263ZM52.6553 54.1388C52.7284 54.0437 52.8005 53.9476 52.8741 53.8527L53.3633 53.2267C53.1248 53.5283 52.8894 53.8342 52.6553 54.1388ZM56.2256 46.3947C56.1868 46.4295 56.1525 46.4624 56.1212 46.4884C56.0542 46.5445 55.9832 46.5938 55.9102 46.6329L55.9092 46.632C55.9823 46.5929 56.0532 46.5444 56.1202 46.4884C56.1517 46.4623 56.1856 46.4287 56.2247 46.3937L56.2256 46.3947ZM43.0596 40.4767C43.221 40.5365 44.9802 41.2293 47.1631 42.0919L47.1622 42.0929C44.9817 41.2313 43.2243 40.5387 43.0596 40.4777V40.4767ZM44.8985 37.8058C44.908 37.8069 44.918 37.8084 44.9288 37.8097C44.9177 37.8083 44.9073 37.8069 44.8975 37.8058L44.8038 37.7999L44.8985 37.8058Z" fill="#1C5DD0"/>
<path d="M15.0001 33.3028C10.7559 38.2239 7.32916 43.1726 4.87412 47.8565C2.48054 52.4233 1.01454 56.7274 0.606542 60.4991C0.198838 64.2689 0.848004 67.4916 2.66123 69.9268C4.47475 72.3619 7.30557 73.8114 10.9034 74.3252C14.503 74.8392 18.8564 74.4128 23.6817 73.1114C27.0916 72.1916 30.7311 70.8347 34.5001 69.0704C34.7224 69.1542 34.9462 69.2347 35.171 69.3126C31.2096 71.1976 27.3815 72.6405 23.7999 73.6065C18.9355 74.9185 14.5146 75.3559 10.8321 74.8301C7.14821 74.304 4.18584 72.8099 2.27353 70.2422C0.36159 67.6745 -0.297175 64.3072 0.120214 60.4473C0.53763 56.5889 2.03158 52.2199 4.44443 47.6163C6.98968 42.7601 10.5646 37.6299 15.0001 32.544V33.3028ZM61.2462 1.44146C66.1104 0.129554 70.5306 -0.308826 74.213 0.216849C77.8968 0.742886 80.8592 2.23734 82.7716 4.80474C84.6838 7.37243 85.3422 10.7397 84.9249 14.5997C84.5076 18.4582 83.0146 22.8279 80.6017 27.4317C79.5058 29.5225 78.2172 31.6631 76.753 33.8301C77.0632 33.8577 77.3589 33.9298 77.6124 34.0694L77.7618 34.1651L77.9171 34.292C78.2494 34.6089 78.3845 35.0514 78.4054 35.5049C78.4289 36.0175 78.3109 36.5926 78.1222 37.1602C77.7437 38.2983 77.0377 39.5362 76.3292 40.4483C74.4472 42.8712 72.7217 44.5593 70.9923 46.1085C71.1459 46.5381 71.339 47.0777 71.5597 47.6963C71.5669 47.7167 71.5738 47.7373 71.5812 47.7579C71.7209 47.6182 71.8609 47.4835 71.9796 47.3741C72.2161 47.1561 72.5231 46.9011 72.7921 46.6983C72.9259 46.5974 73.0585 46.5023 73.1739 46.4307C73.2308 46.3954 73.2937 46.36 73.3556 46.3311C73.3959 46.3123 73.5165 46.2552 73.6573 46.2559L73.6651 46.2569L73.7794 46.2696C73.8133 46.2761 73.8425 46.2838 73.8644 46.2901C73.9164 46.3051 73.9718 46.3248 74.0265 46.3467C74.1363 46.3908 74.2656 46.4525 74.4044 46.5274C74.6823 46.6774 75.0197 46.8931 75.3468 47.1641L75.6173 47.4053C75.8725 47.6512 76.0819 47.9049 76.2384 48.1182C76.3432 48.2611 76.4265 48.3903 76.4864 48.4913C76.5161 48.5412 76.5415 48.5878 76.5616 48.628C76.5716 48.6478 76.5823 48.6703 76.5919 48.6934C76.5962 48.7038 76.6111 48.7449 76.6222 48.7979H76.6241C76.6249 48.8018 76.6244 48.8068 76.6251 48.8106C76.6258 48.814 76.6283 48.8169 76.629 48.8204H76.6271C76.642 48.9143 76.6276 48.9919 76.6173 49.0313C76.6052 49.0777 76.5897 49.1142 76.5792 49.1358C76.5584 49.1785 76.5356 49.2125 76.5235 49.2295C76.4976 49.2662 76.4685 49.3002 76.4464 49.3252C76.3994 49.3786 76.3377 49.4427 76.2706 49.5098C76.1338 49.6467 75.9473 49.8239 75.7462 50.0098C75.4457 50.2877 75.0982 50.598 74.8146 50.8389L74.5567 51.0528C74.3958 51.1816 74.0981 51.3363 73.8106 51.4756C73.5741 51.5902 73.3017 51.7115 73.0294 51.8301C73.2381 52.418 73.4525 53.0174 73.6651 53.6182C74.4298 55.7788 75.193 57.951 75.7638 59.6016C76.049 60.4264 76.2868 61.1233 76.4522 61.6241C76.5347 61.8738 76.5999 62.0786 76.6446 62.2266C76.6667 62.2997 76.6853 62.364 76.6983 62.4151C76.7047 62.44 76.7118 62.4679 76.7169 62.4952C76.7179 62.5003 76.7359 62.5797 76.7257 62.67C76.7126 62.7842 76.668 62.8779 76.6397 62.9307C76.608 62.9899 76.57 63.0444 76.5353 63.0909C76.4656 63.1842 76.3778 63.2823 76.2872 63.377C76.1041 63.5684 75.8688 63.788 75.6368 63.9952C75.4028 64.2041 75.1627 64.4084 74.9698 64.5723C74.7687 64.7433 74.6344 64.8573 74.587 64.9004C74.3083 65.154 73.9651 65.1747 73.7394 65.1397C73.6186 65.1209 73.5009 65.0825 73.3976 65.0274C73.3006 64.9756 73.1802 64.89 73.0997 64.7559C73.0979 64.7531 73.0931 64.7433 73.0812 64.7247C73.0666 64.702 73.0457 64.6702 73.0196 64.6299C72.9676 64.5495 72.8933 64.4363 72.8009 64.294C72.6158 64.009 72.3559 63.6093 72.046 63.1338C71.6563 62.536 71.1862 61.8177 70.6856 61.0528C70.6403 61.0779 70.5996 61.1037 70.5616 61.1231C70.1673 61.3242 69.5521 61.4673 69.1046 61.0176L69.1036 61.0167C68.8656 60.7757 68.8214 60.4545 68.9083 60.167C68.988 59.9039 69.1687 59.6857 69.3634 59.5352L69.3673 59.5313C69.4254 59.4872 69.5035 59.4347 69.589 59.379C69.2544 58.869 68.9188 58.3634 68.5997 57.879C68.4568 57.9577 68.2674 58.0433 68.0577 58.0801C67.7823 58.1285 67.4376 58.098 67.1642 57.8292V57.8282C66.9401 57.608 66.8844 57.3076 66.9464 57.0352C67.0061 56.774 67.1688 56.5395 67.3829 56.3809C67.4271 56.348 67.482 56.3115 67.5401 56.2706C67.5153 56.2332 67.4912 56.1958 67.4669 56.1592C67.1435 55.6729 66.8677 55.261 66.6632 54.961C66.5928 54.8577 66.5304 54.7687 66.4786 54.6944C66.3563 54.7791 66.2546 54.8525 66.1993 54.8877C66.0123 55.0069 65.789 55.0702 65.5763 55.0782C65.3618 55.0862 65.1174 55.0395 64.9093 54.8897V54.8907C64.6149 54.6804 64.5691 54.3482 64.6173 54.0928C64.6624 53.8538 64.7915 53.6311 64.9464 53.4747L64.9493 53.4717C64.9605 53.4606 64.9733 53.4495 64.9864 53.4376C64.7451 53.2569 64.4924 53.0654 64.2403 52.879C64.0722 52.7545 63.9044 52.6324 63.7433 52.5137C62.2043 53.8432 60.6571 55.1052 58.9259 56.3321C58.2754 56.7932 57.1874 57.5029 55.9962 58.2657C56.0203 58.3694 56.0465 58.4818 56.0743 58.6016C56.2244 59.2479 56.425 60.1109 56.6251 60.9776C56.8251 61.844 57.0247 62.7151 57.1749 63.377C57.25 63.7079 57.3134 63.9884 57.3575 64.1895C57.3795 64.2896 57.396 64.3727 57.4083 64.4327C57.4144 64.4622 57.421 64.4891 57.4249 64.5108C57.4268 64.5212 57.428 64.5336 57.4298 64.546C57.4298 64.5461 57.4361 64.5875 57.4356 64.6338C57.4342 64.7749 57.3748 64.8792 57.3585 64.9073C57.3338 64.9498 57.3078 64.9838 57.2911 65.004C57.2568 65.0454 57.2188 65.0838 57.1876 65.1133C57.1223 65.1752 57.0373 65.2463 56.9474 65.3194C56.7647 65.4678 56.5254 65.6507 56.2843 65.8262C56.0427 66.0021 55.7921 66.1766 55.589 66.3096C55.4883 66.3756 55.3926 66.436 55.3126 66.4815C55.2733 66.5038 55.2294 66.5264 55.1866 66.546C55.166 66.5554 55.0693 66.6021 54.9542 66.6094C54.7999 66.6192 54.6928 66.5538 54.6759 66.544C54.6392 66.5228 54.6106 66.5006 54.5948 66.4874C54.5618 66.4595 54.532 66.4274 54.5089 66.4024C54.4603 66.3498 54.4015 66.2796 54.339 66.2012C54.212 66.042 54.0437 65.8183 53.8507 65.5557C53.4629 65.0281 52.9626 64.3253 52.4698 63.6251C51.9766 62.9242 51.4886 62.223 51.1241 61.6973C51.0613 61.6067 51.0023 61.5209 50.9474 61.4415C50.7094 61.5889 50.5117 61.7117 50.3644 61.8028C50.2704 61.8609 50.1965 61.9067 50.1466 61.9376C50.1218 61.9529 50.1018 61.9648 50.089 61.9727C50.0828 61.9765 50.0776 61.9795 50.0743 61.9815C50.0732 61.9822 50.0721 61.983 50.0714 61.9835L50.0704 61.9844C50.0694 61.9829 50.0545 61.9582 49.8312 61.5626L50.0694 61.9844L49.754 62.1797L49.4913 61.9522L49.3829 61.8594C48.8472 62.2182 48.0175 62.7701 47.9513 62.7764C47.8576 62.7824 47.044 62.0591 47.045 61.9376C47.0457 61.8578 47.6022 61.1182 47.9688 60.6377L47.9435 60.6163L47.6261 60.3428L47.8751 59.9698L48.2833 60.2266L47.8751 59.9688H47.8761L47.8771 59.9659C47.8783 59.9639 47.8807 59.9605 47.8829 59.9571C47.8877 59.9499 47.8952 59.9395 47.9044 59.9258C47.9233 59.8977 47.9511 59.8556 47.9874 59.8018C48.0475 59.7127 48.1308 59.5898 48.2345 59.4376C48.1522 59.4048 48.065 59.3704 47.9737 59.334C47.3148 59.0712 46.4352 58.719 45.5538 58.3594C44.6727 58 43.7856 57.6315 43.1153 57.3399C42.7814 57.1946 42.4962 57.0654 42.2901 56.9649C42.1884 56.9152 42.0972 56.8683 42.0274 56.8272C41.9939 56.8074 41.9539 56.7825 41.9171 56.754C41.8991 56.74 41.8717 56.717 41.8438 56.6866C41.8253 56.6663 41.7591 56.5941 41.7296 56.4766L41.7306 56.4756C41.689 56.3085 41.7403 56.1641 41.7608 56.1124C41.7881 56.0436 41.8243 55.9829 41.8536 55.9376C41.9134 55.8449 41.9919 55.7467 42.0714 55.6543C42.2336 55.4659 42.4491 55.2442 42.6622 55.0372C42.8767 54.8288 43.099 54.6253 43.2784 54.4698C43.3673 54.3927 43.4505 54.323 43.5196 54.2696C43.5535 54.2435 43.5909 54.2161 43.6271 54.1924C43.645 54.1807 43.6701 54.1659 43.6974 54.1514C43.7176 54.1407 43.7723 54.1122 43.8438 54.0958L43.9317 54.0831C43.9466 54.0822 43.9593 54.0811 43.9679 54.0811C43.9852 54.0811 44.0026 54.0824 44.0157 54.0831C44.043 54.0844 44.0764 54.087 44.1114 54.0899C44.1826 54.0957 44.2796 54.1044 44.3966 54.1163C44.6319 54.1402 44.9595 54.1762 45.3458 54.2198C46.1192 54.3069 47.1373 54.426 48.1495 54.546C49.1621 54.6659 50.1709 54.787 50.9259 54.878C51.116 54.9009 51.2903 54.921 51.4444 54.9395C51.9384 54.2783 52.4555 53.5977 52.9815 52.9327C54.6106 50.8728 56.058 49.3183 57.6729 47.6876C57.5441 47.5713 57.4083 47.4491 57.2716 47.3262C57.0371 47.1154 56.7991 46.9036 56.588 46.7159C56.5268 46.7716 56.4714 46.8244 56.422 46.8653L56.421 46.8643C56.0633 47.1628 55.4945 47.4048 54.9532 47.085L54.9513 47.084C54.6702 46.9157 54.5375 46.634 54.544 46.3379C54.5496 46.0913 54.6509 45.8599 54.7882 45.6749C54.5334 45.5723 54.2455 45.4561 53.9308 45.3301C53.6162 45.2042 53.2749 45.0687 52.9142 44.9249C52.8621 44.9791 52.8172 45.0289 52.7813 45.0645L52.7804 45.0655C52.6605 45.1836 52.4628 45.3526 52.213 45.4571C51.9793 45.5547 51.6894 45.5972 51.3985 45.4844L51.2735 45.4258C50.7678 45.1474 50.7589 44.5666 50.9894 44.1602C50.508 43.9691 50.0155 43.7719 49.5216 43.5762C49.2523 43.4695 48.9828 43.3629 48.7149 43.2569C48.6292 43.3508 48.56 43.4306 48.5196 43.4717C48.2233 43.7733 47.6902 43.9394 47.2364 43.7579C46.9137 43.6285 46.778 43.3439 46.755 43.0879C46.7376 42.893 46.782 42.6946 46.8604 42.5245C44.7213 41.6795 43.0137 41.0072 42.8575 40.9493V40.9483C42.5893 40.8495 42.3644 40.7097 42.2276 40.5088C42.078 40.289 42.0519 40.0159 42.1671 39.7686L42.2237 39.6719C42.2418 39.6454 42.2564 39.6253 42.2618 39.6182C42.286 39.5868 42.3159 39.5513 42.3468 39.5147C42.4094 39.4405 42.4922 39.3462 42.587 39.2413C42.7776 39.0304 43.0274 38.7637 43.2833 38.501C43.538 38.2396 43.8055 37.9756 44.0313 37.7715C44.1433 37.6704 44.2537 37.576 44.3517 37.503C44.4002 37.4668 44.4556 37.4285 44.5118 37.3965C44.556 37.3715 44.6535 37.3189 44.7735 37.3028H44.7745C44.8337 37.2951 44.888 37.2989 44.9034 37.2999C44.9303 37.3016 44.96 37.3045 44.9884 37.3077C45.0458 37.3141 45.1191 37.3243 45.2042 37.337C45.3758 37.3624 45.6125 37.4001 45.9015 37.4493C46.4805 37.5478 47.2844 37.692 48.2335 37.8653C50.1325 38.212 52.6246 38.6798 55.1026 39.1485C56.0335 39.3246 56.9624 39.5018 57.8575 39.6719C57.9422 39.4969 58.0557 39.3111 58.2071 39.1211C58.5175 38.732 59.1499 38.1128 59.7208 37.6006C60.01 37.3411 60.296 37.0981 60.5323 36.9151C60.6496 36.8242 60.7629 36.7409 60.8624 36.6778C60.9117 36.6465 60.9657 36.6144 61.0206 36.5879C61.0655 36.5663 61.1558 36.5264 61.2628 36.5147L61.38 36.5098C61.4975 36.5117 61.6138 36.5332 61.7169 36.5596C61.8624 36.5969 62.0202 36.6544 62.1827 36.7276C62.5082 36.8742 62.8781 37.0955 63.2433 37.3848L63.378 37.4971C63.6811 37.763 63.9067 38.0571 64.0626 38.3135C64.1518 38.4603 64.2215 38.599 64.2706 38.7188C64.3024 38.7964 64.3363 38.8919 64.3546 38.9874L64.3673 39.0831L64.3624 39.1905C64.3485 39.2904 64.3111 39.3654 64.2979 39.3917C64.271 39.4452 64.2387 39.4925 64.213 39.5284C64.1604 39.6016 64.0939 39.6802 64.0265 39.7549C63.8889 39.9076 63.7074 40.0908 63.5226 40.2696C63.3813 40.4062 63.2316 40.543 63.0929 40.671C63.4917 40.7476 63.8378 40.814 64.1202 40.8682C64.2839 40.8997 64.4268 40.9266 64.546 40.9493C67.0656 38.6058 69.05 37.0151 70.9337 35.8047C72.0456 35.0904 73.3923 34.4651 74.6114 34.1153C75.1505 33.9606 75.6788 33.8554 76.1593 33.8252C77.6936 31.5763 79.0374 29.3561 80.172 27.1915C82.5655 22.6248 84.0306 18.3205 84.4386 14.5489C84.8462 10.7789 84.1974 7.55534 82.3839 5.12017C80.5703 2.68531 77.7395 1.23646 74.1417 0.722708C70.5421 0.208805 66.1887 0.63414 61.3634 1.9356C52.4791 4.33194 42.0326 9.68764 31.8155 17.5254L29.92 18.3682C40.6812 9.81685 51.8203 3.98378 61.2462 1.44146ZM55.3302 65.8995C55.1405 66.0235 54.9993 66.1058 54.9581 66.1085L54.9591 66.1094C55.0011 66.106 55.1413 66.0229 55.3302 65.8995ZM69.4933 60.0782C69.4915 60.0804 69.4901 60.0828 69.4884 60.085C69.51 60.0564 69.5336 60.0283 69.5597 60.002L69.4933 60.0782ZM43.589 54.8379C43.3425 55.0515 43.0062 55.3672 42.7276 55.6543C43.0059 55.3676 43.3417 55.0524 43.588 54.8389L43.589 54.8379ZM48.4044 55.085C47.9424 55.0301 47.4734 54.9759 47.0216 54.9229C47.4734 54.9759 47.9424 55.0301 48.4044 55.085ZM45.462 54.7413C45.2954 54.7223 45.1381 54.7047 44.9923 54.6885C45.1381 54.7047 45.2954 54.7223 45.462 54.7413ZM44.0353 54.5889C44.1384 54.5973 44.3067 54.6145 44.5255 54.6377C44.1674 54.5996 43.9446 54.5783 43.921 54.5831L44.0353 54.5889ZM65.9552 54.4708C65.9072 54.5013 65.8507 54.5267 65.7901 54.545C65.8199 54.536 65.8489 54.5259 65.8761 54.5137C65.9041 54.5012 65.9308 54.4872 65.9552 54.4717C65.995 54.4464 66.0654 54.3943 66.1554 54.3321H66.1544C66.0651 54.3938 65.995 54.4454 65.9552 54.4708ZM52.8741 53.8526C52.8005 53.9476 52.7284 54.0436 52.6554 54.1387C52.8894 53.8342 53.1248 53.5282 53.3634 53.2266L52.8741 53.8526ZM65.4112 53.1094L65.4132 53.1085L64.5636 52.4747C64.8511 52.6874 65.1403 52.9059 65.4112 53.1094ZM76.1163 48.9668C76.1184 48.9641 76.1214 48.9624 76.1231 48.96C76.1324 48.947 76.1377 48.9379 76.1368 48.9336H76.1358C76.1369 48.9387 76.1295 48.9496 76.1163 48.9668ZM56.1202 46.4883C55.9861 46.6005 55.8371 46.6841 55.6847 46.7178C55.723 46.7094 55.7612 46.698 55.7989 46.6836C55.8364 46.6693 55.8737 46.6524 55.9103 46.6329C55.9834 46.5938 56.0542 46.5444 56.1212 46.4883C56.1524 46.4625 56.1861 46.4293 56.2247 46.3946V46.3936L56.1202 46.4883ZM55.2062 45.919C55.1815 45.9486 55.1594 45.9798 55.1397 46.0118L55.2071 45.919C55.221 45.9021 55.2382 45.8838 55.2569 45.8633H55.256C55.2371 45.8836 55.22 45.9021 55.2062 45.919ZM52.2774 44.8614C52.3074 44.8389 52.3368 44.8171 52.3634 44.794L52.4298 44.7325H52.4278C52.3842 44.7742 52.3339 44.8191 52.2774 44.8614ZM49.0841 42.8536C49.8349 43.1509 50.5947 43.454 51.3253 43.7442L51.3272 43.7422L49.7335 43.1085C49.5172 43.0227 49.3007 42.937 49.0851 42.8516L49.0841 42.8536ZM43.0597 40.4776C43.2191 40.5367 44.882 41.1915 46.9757 42.0186C44.8801 41.1906 43.2163 40.5346 43.0597 40.4766V40.4776ZM44.9288 37.8096C44.9181 37.8083 44.908 37.8068 44.8985 37.8057L44.8038 37.7999C44.8195 37.7979 44.8617 37.8014 44.9288 37.8096Z" fill="#1A5ACE"/>
<path d="M55.58 57.5986L55.581 57.5995C55.5812 57.6003 55.5806 57.6019 55.581 57.6034C55.5817 57.6067 55.5832 57.6123 55.5847 57.6188C55.5877 57.6317 55.5921 57.6508 55.5979 57.6755C55.6096 57.7259 55.6276 57.7998 55.6495 57.8938C55.6933 58.082 55.7556 58.3516 55.8306 58.6748C55.9807 59.321 56.1804 60.1839 56.3805 61.0505C56.5806 61.9171 56.781 62.788 56.9311 63.4495C57.0061 63.7803 57.069 64.0595 57.1129 64.2598C57.1348 64.3597 57.1524 64.441 57.1644 64.4995C57.1703 64.5285 57.1749 64.5537 57.1783 64.5728C57.18 64.5819 57.1817 64.5912 57.183 64.5998C57.1833 64.6025 57.1866 64.6253 57.1864 64.6494C57.1857 64.7219 57.155 64.7766 57.1452 64.7935C57.1312 64.8177 57.1154 64.8377 57.1038 64.8518C57.0799 64.8807 57.0513 64.9103 57.0232 64.9369C56.9655 64.9916 56.8875 65.0582 56.7994 65.1298C56.6217 65.2741 56.3853 65.453 56.1463 65.6271C55.9072 65.8012 55.6613 65.9731 55.4632 66.1029C55.3646 66.1674 55.2744 66.2236 55.2017 66.2649C55.1657 66.2853 55.1296 66.3045 55.097 66.3194C55.0754 66.3292 55.0189 66.3555 54.9564 66.3596C54.8778 66.3645 54.8221 66.331 54.8115 66.3248C54.7912 66.3131 54.775 66.2999 54.7641 66.2908C54.7415 66.2717 54.7184 66.2483 54.6975 66.2257C54.6544 66.1792 54.6001 66.1141 54.5384 66.0367C54.4142 65.881 54.2479 65.6603 54.0551 65.3979C53.6686 64.8721 53.169 64.1713 52.6762 63.4712C52.1833 62.7707 51.6959 62.0696 51.3315 61.5442C51.1494 61.2815 50.9978 61.0627 50.892 60.9094C50.839 60.8328 50.7982 60.7719 50.7698 60.7308C50.7557 60.7103 50.7444 60.6947 50.7371 60.6841C50.7335 60.6788 50.7303 60.6746 50.7285 60.6719C50.7277 60.6708 50.727 60.6698 50.7266 60.6691L50.7266 60.6682L50.6342 60.5345L50.729 60.3898L52.2714 58.0168L52.3376 57.914L52.4546 57.8949L55.3147 57.4251L55.5312 57.3889L55.58 57.5986ZM43.9865 54.3331C44.0097 54.3342 44.0392 54.3366 44.0731 54.3393C44.1419 54.3449 44.2376 54.3535 44.3544 54.3654C44.5884 54.3892 44.9142 54.4247 45.3003 54.4682C46.0731 54.5553 47.0903 54.6747 48.1026 54.7946C49.1149 54.9146 50.1228 55.0358 50.8777 55.1267C51.255 55.1722 51.5696 55.21 51.7894 55.2366C51.899 55.2499 51.9855 55.2601 52.0443 55.2673C52.0738 55.2708 52.0972 55.2738 52.1124 55.2756C52.1197 55.2765 52.1252 55.277 52.129 55.2775C52.1309 55.2777 52.1329 55.278 52.1339 55.2782L52.1348 55.2781L52.4413 55.3162L52.316 55.6111L51.5511 57.4116L51.5292 57.4628L51.4889 57.5014L49.4494 59.4767L49.3276 59.5947L49.1781 59.5359L49.1771 59.536C49.1763 59.5356 49.1748 59.5349 49.1732 59.5343C49.1698 59.5329 49.1643 59.531 49.1577 59.5284C49.1444 59.5232 49.125 59.5149 49.0994 59.5048C49.048 59.4844 48.9722 59.4545 48.8762 59.4165C48.6841 59.3404 48.4097 59.2315 48.0803 59.1001C47.4214 58.8374 46.5416 58.4852 45.6605 58.1257C44.7799 57.7665 43.8962 57.3996 43.2285 57.1092C42.8952 56.9641 42.6132 56.8369 42.4117 56.7385C42.3115 56.6896 42.2265 56.6454 42.1644 56.6088C42.1343 56.591 42.1039 56.5717 42.0782 56.5518C42.0656 56.542 42.0488 56.5281 42.0328 56.5108C42.0215 56.4984 41.9866 56.4601 41.9715 56.3995L41.9724 56.3985C41.9501 56.3084 41.9771 56.2275 41.9918 56.1903C42.0099 56.1447 42.0357 56.101 42.0601 56.063C42.1098 55.986 42.1788 55.8984 42.2552 55.8096C42.4097 55.6301 42.6188 55.4154 42.8294 55.2109C43.0406 55.0057 43.2584 54.8059 43.4333 54.6543C43.5205 54.5787 43.5996 54.5129 43.6629 54.464C43.6942 54.4398 43.7253 54.4169 43.7531 54.3987C43.7669 54.3897 43.783 54.3794 43.8001 54.3703C43.8138 54.3631 43.8442 54.3485 43.8822 54.3398L43.9504 54.3325C43.9622 54.3325 43.9751 54.3326 43.9865 54.3331Z" fill="#1C5DD0" stroke="#C4DBE9" stroke-width="0.5"/>
<path d="M70.775 59.1336L71.5879 59.8539L71.8295 60.0679L71.5385 60.2552L71.5376 60.2553L71.5366 60.2563C71.5351 60.2572 71.5325 60.2589 71.5297 60.2607C71.5242 60.2642 71.5156 60.2693 71.5052 60.2759C71.4843 60.2892 71.4542 60.3088 71.4171 60.3322C71.3426 60.3794 71.2399 60.4439 71.1272 60.5137C70.9051 60.6509 70.6327 60.8155 70.4624 60.9024C70.1065 61.0839 69.6271 61.176 69.2873 60.8346L69.2863 60.8337C69.1145 60.6596 69.0834 60.4328 69.1466 60.2238C69.2062 60.0269 69.3448 59.8528 69.5055 59.7286L69.5074 59.7275C69.6374 59.6288 69.8891 59.4719 70.0952 59.3466C70.2009 59.2823 70.2996 59.2242 70.3714 59.1817C70.4072 59.1604 70.4362 59.1424 70.4566 59.1304C70.4665 59.1245 70.4746 59.1204 70.48 59.1172C70.4828 59.1156 70.4855 59.1137 70.4869 59.1128L70.4879 59.1118L70.6465 59.0197L70.775 59.1336ZM68.6402 56.0066L69.4831 56.6362L69.7598 56.8431L69.4522 57.0471L69.4512 57.0471L69.4502 57.0482C69.449 57.049 69.4467 57.0499 69.4443 57.0515C69.4396 57.0546 69.4327 57.0596 69.4238 57.0655C69.4057 57.0774 69.3793 57.0951 69.3473 57.1162C69.2835 57.1583 69.1958 57.2154 69.1014 57.2773C68.9142 57.3999 68.6939 57.5433 68.5773 57.6141L68.5764 57.6132C68.4434 57.6949 68.2472 57.7964 68.0329 57.8342C67.8105 57.8732 67.5506 57.8459 67.3449 57.6437C67.1841 57.4859 67.1438 57.2716 67.1892 57.0729C67.2334 56.88 67.356 56.7022 67.5218 56.5793L68.0325 56.2228C68.1206 56.163 68.2014 56.1081 68.2598 56.0688C68.2889 56.0493 68.313 56.0334 68.3294 56.0224C68.3374 56.017 68.3437 56.0124 68.348 56.0095C68.3501 56.0081 68.3518 56.007 68.3529 56.0063L68.3539 56.0062L68.5047 55.9059L68.6402 56.0066ZM66.1894 52.928C66.2125 52.928 66.2329 52.9307 66.2468 52.9331C66.2741 52.938 66.3 52.9458 66.3207 52.9528C66.3635 52.9674 66.4131 52.9885 66.4624 53.0112C66.5623 53.0572 66.6848 53.1198 66.8008 53.1819C66.9176 53.2445 67.0314 53.3085 67.1158 53.3561C67.158 53.3799 67.1931 53.4 67.2176 53.4141C67.2295 53.4209 67.2391 53.4261 67.2457 53.4298C67.2488 53.4316 67.2517 53.4332 67.2535 53.4342L67.2554 53.4351L67.2564 53.436L67.581 53.6242L67.2546 53.8558L67.2546 53.8568C67.2541 53.8571 67.2526 53.8573 67.2517 53.8579C67.2498 53.8592 67.2473 53.8618 67.2438 53.8643C67.2366 53.8694 67.2258 53.8763 67.2125 53.8858C67.1855 53.905 67.1468 53.9327 67.0997 53.9661C67.0055 54.033 66.8777 54.1237 66.7439 54.2181C66.4799 54.4043 66.1816 54.6138 66.0775 54.6802C65.9355 54.7706 65.7582 54.8221 65.5853 54.8286C65.411 54.8351 65.2197 54.7959 65.0616 54.6813L65.0616 54.6803C64.8617 54.5362 64.8253 54.3111 64.861 54.1221C64.8952 53.9409 64.9964 53.7667 65.1165 53.6452L65.1184 53.6432C65.2265 53.5358 65.4682 53.3623 65.6578 53.2302C65.7578 53.1605 65.8522 53.096 65.9214 53.0495C65.9561 53.0262 65.9849 53.0076 66.0047 52.9944C66.0144 52.988 66.0219 52.9828 66.0272 52.9793C66.0296 52.9777 66.0317 52.9759 66.0331 52.975L66.0351 52.9739L66.0576 52.9588L66.0811 52.9495C66.128 52.9301 66.169 52.928 66.1894 52.928ZM56.1084 44.9256L57.114 45.4385L57.4039 45.587L57.1582 45.8339L57.1513 45.8412C57.1468 45.8457 57.1402 45.8525 57.1317 45.8609C57.1146 45.8781 57.0894 45.9027 57.059 45.9329C56.9981 45.9933 56.9146 46.0766 56.8222 46.1666C56.6401 46.3437 56.4153 46.5576 56.2712 46.6769C55.9584 46.9384 55.5096 47.1137 55.0919 46.867L55.0909 46.8661C54.8832 46.7419 54.7889 46.5394 54.7938 46.3248C54.7984 46.1215 54.8898 45.9219 55.0198 45.7659C55.1215 45.6423 55.3275 45.4392 55.4955 45.2779C55.5825 45.1944 55.6639 45.118 55.7234 45.0623C55.7532 45.0345 55.7781 45.012 55.7951 44.9963C55.8035 44.9885 55.8102 44.9826 55.8147 44.9785C55.8169 44.9764 55.8185 44.9744 55.8197 44.9733L55.8216 44.9722L55.8216 44.9712L55.9562 44.8475L56.1084 44.9256ZM52.2212 43.3555L53.2384 43.7642L53.5587 43.8931L53.3079 44.1618L53.2853 44.1857C53.271 44.201 53.2506 44.2232 53.2253 44.25C53.1747 44.304 53.1047 44.3783 53.0297 44.4577C52.8811 44.6149 52.7057 44.7982 52.6119 44.8912L52.6119 44.8922C52.5033 44.9993 52.3356 45.141 52.1316 45.2263C51.9191 45.3151 51.6599 45.344 51.4052 45.2041C50.9939 44.9778 51.0272 44.4629 51.2829 44.1559C51.3806 44.0382 51.5462 43.854 51.6834 43.703C51.7526 43.6267 51.8163 43.5572 51.8624 43.5071C51.8852 43.4823 51.9035 43.462 51.9165 43.448C51.9229 43.4411 51.9278 43.4352 51.9312 43.4315C51.9328 43.4298 51.9343 43.4283 51.9352 43.4273L51.9371 43.4262L52.061 43.2915L52.2212 43.3555ZM48.1349 41.6096C48.1809 41.6143 48.2358 41.6238 48.2905 41.6349C48.4014 41.6574 48.5391 41.6912 48.6705 41.7259C48.8031 41.7608 48.9334 41.7974 49.0301 41.825C49.0783 41.8388 49.1186 41.8504 49.1466 41.8586C49.1604 41.8626 49.1712 41.866 49.1787 41.8683L49.1904 41.8714L49.5479 41.9785L49.2842 42.2724L49.2842 42.2734L49.2823 42.2745C49.2809 42.2761 49.279 42.2788 49.2764 42.2817C49.2707 42.2881 49.2615 42.2977 49.2508 42.3097C49.2294 42.3336 49.1987 42.3684 49.1613 42.4101C49.0865 42.4934 48.9852 42.606 48.8789 42.7237C48.669 42.9563 48.4315 43.217 48.3479 43.3021C48.1215 43.5325 47.6988 43.6661 47.3436 43.524C47.1179 43.4338 47.021 43.2369 47.004 43.0479C46.9878 42.8676 47.0398 42.6783 47.1273 42.5325C47.1704 42.4609 47.2416 42.3707 47.3117 42.2876C47.3853 42.2002 47.4701 42.1048 47.5497 42.0177C47.6297 41.9302 47.7063 41.8493 47.7621 41.7904C47.7899 41.7612 47.813 41.7375 47.829 41.7208L47.8536 41.6948L47.8703 41.6772L47.8889 41.6643C47.9336 41.6314 47.9771 41.6191 47.9975 41.6145C48.021 41.6091 48.0416 41.6075 48.056 41.6068C48.0846 41.6054 48.1126 41.6074 48.1349 41.6096ZM61.2717 36.7642C61.3853 36.7519 61.5131 36.7702 61.6386 36.8023C61.7684 36.8356 61.9141 36.8883 62.0678 36.9576C62.3752 37.0961 62.7292 37.3072 63.0811 37.5861L63.2068 37.6903C63.4899 37.9388 63.7007 38.2145 63.8468 38.4548C63.9304 38.5923 63.9942 38.7203 64.0383 38.8282C64.0791 38.9278 64.1125 39.0325 64.1176 39.1159C64.1226 39.1973 64.0904 39.2648 64.0771 39.2912C64.0591 39.3271 64.0365 39.3617 64.0148 39.3918C63.971 39.4529 63.9124 39.5227 63.8475 39.5947C63.7162 39.7404 63.5394 39.918 63.356 40.0954C62.9889 40.4506 62.5775 40.8211 62.4045 40.9689C62.2459 41.1044 61.9431 41.3988 61.6727 41.6674C61.539 41.8001 61.4156 41.9247 61.3257 42.0154C61.281 42.0606 61.2439 42.0971 61.2186 42.1227C61.2061 42.1355 61.1967 42.1461 61.1901 42.1529C61.1868 42.1562 61.1839 42.1585 61.1823 42.1602L61.1803 42.1623L61.0505 42.2945L60.8934 42.2235L58.0109 40.931L57.9003 40.8814L57.8799 40.7598L57.8799 40.7568C57.8798 40.756 57.8792 40.7551 57.879 40.754C57.8786 40.7514 57.8786 40.7479 57.8781 40.7443C57.8771 40.7368 57.8755 40.7271 57.8745 40.7152C57.8723 40.6915 57.8707 40.659 57.8704 40.6189C57.87 40.5384 57.8761 40.4262 57.9026 40.2908C57.9557 40.0187 58.0884 39.6565 58.3976 39.2687C58.6926 38.8989 59.3094 38.2926 59.8786 37.7819C60.1653 37.5247 60.4462 37.2861 60.6755 37.1085C60.7897 37.0201 60.8951 36.9435 60.9843 36.8869C61.0286 36.8587 61.0733 36.8335 61.1154 36.8132C61.1525 36.7953 61.2092 36.771 61.2717 36.7642Z" fill="#C4DBE9" stroke="#C4DBE9" stroke-width="0.5"/>
<path d="M58.9625 40.7366C58.9625 40.7366 61.2319 38.2157 61.8319 38.5345C62.4376 38.8554 59.9868 41.0512 59.9868 41.0512L58.9625 40.7366Z" fill="#C4DBE9"/>
<path d="M58.4487 40.6174C58.4487 40.6174 59.732 39.4196 59.8741 39.2334C60.0162 39.0472 59.8897 38.7895 59.7769 38.6499C59.664 38.5128 59.4888 38.4682 59.4888 38.4682C59.4888 38.4682 58.5839 39.2218 58.2711 39.8517C58.0268 40.3405 58.0657 40.5785 58.0657 40.5785L58.4487 40.6174ZM60.6364 41.0529C60.6364 41.0529 61.1233 40.5891 61.3678 40.4015C61.5887 40.233 61.9136 40.2276 62.1059 40.314C62.3537 40.4248 62.4103 40.6389 62.4103 40.6389L61.5072 41.5189L60.6364 41.0529Z" fill="#1C5DD0"/>
<path d="M73.6417 46.5072C73.6916 46.5084 73.7415 46.5206 73.7798 46.5316C73.8222 46.5439 73.8697 46.5603 73.9196 46.5803C74.0198 46.6205 74.1406 46.6782 74.2737 46.7501C74.5401 46.8939 74.8653 47.1012 75.18 47.362L75.437 47.5926C75.681 47.8275 75.8822 48.0704 76.033 48.2759C76.1336 48.4132 76.2135 48.5355 76.2695 48.6298C76.2973 48.6766 76.3205 48.7183 76.3375 48.7524C76.3459 48.7691 76.3538 48.7865 76.3605 48.8026C76.3643 48.8119 76.3724 48.8367 76.3784 48.8659L76.3804 48.8658C76.3808 48.8676 76.38 48.8698 76.3803 48.8716C76.3807 48.8736 76.3819 48.8754 76.3822 48.8774L76.3803 48.8775C76.3879 48.9251 76.3817 48.9646 76.3764 48.9851C76.3701 49.0091 76.3622 49.0283 76.3564 49.0401C76.3451 49.0633 76.3321 49.0821 76.3238 49.0939C76.3063 49.1186 76.2847 49.1443 76.2647 49.1669C76.2234 49.2138 76.1666 49.2733 76.1006 49.3394C75.9673 49.4727 75.7838 49.647 75.5839 49.8319C75.1849 50.2008 74.7078 50.6235 74.4098 50.862C74.2774 50.9681 74.0086 51.1094 73.7148 51.2517C73.4098 51.3995 73.0445 51.5633 72.6938 51.7119C72.3437 51.8602 72.0044 51.9954 71.7506 52.0871C71.6248 52.1325 71.5134 52.1693 71.4311 52.1913C71.3926 52.2016 71.3471 52.2122 71.3053 52.2159C71.288 52.2174 71.2456 52.2205 71.1992 52.208C71.1748 52.2014 71.1321 52.1863 71.0935 52.1484C71.0489 52.1043 71.0224 52.0419 71.023 51.9742L71.0231 51.9625L71.0241 51.9625C71.024 51.9626 71.0232 51.9208 71.0194 51.8222C71.016 51.7319 71.0106 51.6083 71.0041 51.4631C70.9911 51.1729 70.9731 50.7967 70.9548 50.4238C70.9365 50.0509 70.9183 49.6813 70.9044 49.4052C70.8974 49.2674 70.891 49.1527 70.8869 49.0725C70.8848 49.0324 70.8829 49.0006 70.8819 48.9792C70.8813 48.9686 70.8814 48.9603 70.8811 48.9548C70.8809 48.952 70.8812 48.9494 70.8812 48.948L70.8802 48.9471L70.8753 48.8351L70.955 48.75L70.9569 48.748C70.9584 48.7464 70.9601 48.7437 70.9629 48.7408C70.9685 48.7348 70.9768 48.726 70.9874 48.7148C71.0087 48.6924 71.0397 48.6603 71.0779 48.6202C71.1545 48.5399 71.2613 48.428 71.3816 48.3042C71.6209 48.058 71.9187 47.7574 72.1402 47.5533C72.3699 47.3417 72.67 47.0926 72.9321 46.8949C73.0628 46.7963 73.1883 46.7071 73.2938 46.6416C73.346 46.6092 73.3982 46.5793 73.4465 46.5567C73.4839 46.5393 73.558 46.507 73.6378 46.5075L73.6417 46.5072Z" fill="#C4DBE9" stroke="#C4DBE9" stroke-width="0.5"/>
<path d="M71.5418 50.3192C71.5418 50.3192 73.685 48.1683 74.1677 48.5147C74.6503 48.8611 71.7115 51.3158 71.7115 51.3158L71.5418 50.3192Z" fill="#C4DBE9"/>
<path d="M71.3881 49.8228L72.1704 49.034C72.4479 48.7556 72.4334 48.4073 72.3528 48.2605C72.2491 48.0722 71.9773 48.0439 71.9773 48.0439L70.959 49.0376L71.3881 49.8228ZM72.1082 51.45C72.1082 51.45 73.3344 50.4229 73.5436 50.2603C73.7528 50.0976 74.0904 49.9699 74.3554 50.1125C74.5534 50.2189 74.64 50.3576 74.64 50.3576C74.64 50.3576 73.6954 51.2985 73.1276 51.6459C72.7716 51.8634 71.9334 52.0281 71.9334 52.0281L72.1082 51.45Z" fill="#1C5DD0"/>
<path d="M70.3657 45.1134L70.3657 45.1144L70.3666 45.1162C70.3674 45.1183 70.369 45.1216 70.3705 45.1258C70.3734 45.1339 70.3771 45.1462 70.3828 45.1621C70.3944 45.1945 70.4117 45.2434 70.4341 45.3062C70.479 45.4317 70.5452 45.6157 70.629 45.8501C70.7967 46.3191 71.0366 46.9896 71.3239 47.795C71.8984 49.4057 72.6636 51.5567 73.4282 53.7171C74.1928 55.8776 74.9567 58.0484 75.5272 59.6982C75.8123 60.5229 76.0497 61.2184 76.2146 61.7177C76.2969 61.9668 76.3622 62.1684 76.4061 62.3136C76.4279 62.3857 76.4452 62.4465 76.4571 62.4928C76.4629 62.5156 76.4683 62.5382 76.4721 62.5582C76.4736 62.5663 76.4825 62.6113 76.477 62.6594C76.4694 62.726 76.4434 62.7841 76.422 62.824C76.3989 62.8671 76.3701 62.91 76.3401 62.9502C76.2801 63.0305 76.201 63.1193 76.1137 63.2105C75.9382 63.394 75.7087 63.6073 75.4782 63.8131C75.2469 64.0196 75.0099 64.2225 74.8176 64.386C74.6211 64.5531 74.4791 64.6728 74.427 64.7202C74.231 64.8987 73.9797 64.9207 73.7953 64.8921C73.699 64.8772 73.6058 64.8473 73.5262 64.8048C73.4501 64.7641 73.3688 64.7029 73.3165 64.6161C73.3165 64.6161 73.3153 64.6129 73.3108 64.6058C73.3066 64.5991 73.3008 64.59 73.2935 64.5785C73.2788 64.5556 73.2581 64.5233 73.232 64.4829C73.1798 64.4022 73.1053 64.2888 73.0129 64.1465C72.8277 63.8613 72.5676 63.4619 72.2575 62.9862C71.6374 62.0349 70.8165 60.7773 69.9884 59.5145C69.1602 58.2516 68.3251 56.9837 67.6777 56.0103C67.3539 55.5234 67.0773 55.1105 66.872 54.8093C66.7694 54.6587 66.6851 54.5366 66.6219 54.4475C66.5904 54.4029 66.5647 54.3675 66.545 54.3411C66.5351 54.328 66.5269 54.318 66.5209 54.3104C66.5158 54.304 66.5136 54.3007 66.5132 54.3002C66.4866 54.2717 66.4069 54.2021 66.2715 54.093C66.1412 53.9881 65.9709 53.8554 65.7743 53.705C65.3808 53.404 64.8849 53.0341 64.3982 52.674C63.9116 52.3139 63.4344 51.9643 63.0792 51.7048C62.9019 51.5752 62.755 51.468 62.6524 51.3932C62.601 51.3559 62.5607 51.3261 62.5333 51.3061C62.5196 51.2962 62.5084 51.2889 62.5014 51.2838C62.4981 51.2814 62.4954 51.2797 62.4936 51.2784C62.4928 51.2778 62.4921 51.2769 62.4917 51.2766L62.3097 51.1447L62.4401 50.9431L65.0598 46.9147L65.1091 46.8383L65.1932 46.8066L70.0581 44.9787L70.2868 44.8929L70.3657 45.1134ZM44.7896 37.5515C44.8227 37.5472 44.8553 37.5493 44.8704 37.5502C44.8917 37.5516 44.9169 37.5533 44.9434 37.5563C44.9967 37.5624 45.0666 37.5717 45.1506 37.5842C45.3197 37.6092 45.5537 37.6482 45.8422 37.6973C46.4199 37.7956 47.2223 37.9381 48.1714 38.1114C50.0698 38.458 52.5616 38.9257 55.0398 39.3944C57.5181 39.8632 59.9835 40.3331 61.8292 40.6864C62.7519 40.863 63.5197 41.0106 64.057 41.1138C64.3255 41.1653 64.5365 41.2065 64.6803 41.2342C64.7521 41.248 64.8075 41.2586 64.8446 41.2657C64.863 41.2692 64.877 41.272 64.8864 41.2738C64.8908 41.2746 64.8948 41.2746 64.8971 41.2751C64.8982 41.2753 64.8995 41.2757 64.9 41.2759L64.901 41.2758L65.0731 41.3088L65.0862 41.4856L65.0861 41.4924C65.0864 41.4966 65.0873 41.5028 65.0879 41.5108C65.0892 41.5275 65.0908 41.5525 65.0931 41.5837C65.0978 41.6461 65.105 41.7355 65.1132 41.843C65.1297 42.058 65.1522 42.3455 65.1754 42.6364C65.1986 42.9277 65.222 43.2223 65.2423 43.45C65.2524 43.564 65.2616 43.6606 65.269 43.7314C65.2727 43.7666 65.2764 43.794 65.279 43.8137C65.2794 43.8169 65.2786 43.8201 65.2789 43.8225L65.2882 43.8766C65.2912 43.9274 65.2773 43.9683 65.2697 43.988C65.2581 44.0177 65.2438 44.0395 65.236 44.0507C65.2198 44.0737 65.2031 44.0917 65.1937 44.1012C65.1727 44.1222 65.1468 44.1438 65.123 44.1633C65.0734 44.2037 65.0039 44.2565 64.92 44.3177C64.7505 44.4414 64.5086 44.6109 64.2202 44.8092C63.6424 45.2063 62.8691 45.7255 62.0968 46.2403C61.3244 46.7551 60.5508 47.2664 59.9707 47.6491C59.6806 47.8404 59.4385 48 59.2692 48.1114C59.1849 48.1668 59.1186 48.2102 59.0733 48.24C59.0506 48.2549 59.0331 48.2668 59.0213 48.2745C59.0155 48.2784 59.0106 48.2812 59.0076 48.2832C59.0063 48.2841 59.0054 48.2849 59.0047 48.2853L59.0037 48.2864L58.8391 48.3944L58.7028 48.2704L58.7019 48.2685C58.7007 48.2674 58.6984 48.2661 58.6961 48.264C58.6915 48.2598 58.6846 48.2537 58.6758 48.2457C58.6577 48.2293 58.6305 48.2044 58.5966 48.1737C58.5287 48.1122 58.4314 48.0242 58.3144 47.9183C58.08 47.7063 57.7658 47.4221 57.4456 47.1342C57.1252 46.8461 56.7985 46.5545 56.541 46.327C56.4123 46.2133 56.3016 46.1155 56.2172 46.0431C56.175 46.0069 56.1395 45.978 56.1128 45.956C56.0995 45.9451 56.0891 45.9361 56.0809 45.9298C56.0767 45.9265 56.074 45.9239 56.0722 45.9225C56.0849 45.9308 56.0877 45.9314 56.0508 45.9151C56.0235 45.9029 55.9841 45.8853 55.9334 45.864C55.8323 45.8214 55.6887 45.7625 55.5083 45.689C55.1473 45.5418 54.6408 45.3382 54.0369 45.0964C52.8293 44.613 51.2322 43.9778 49.6273 43.3418C48.021 42.7053 46.4082 42.0686 45.1699 41.5805L42.9587 40.7129C42.7129 40.6225 42.5369 40.5046 42.4368 40.3577C42.3304 40.2013 42.3175 40.0197 42.3915 39.8608L42.4557 39.7621C42.4763 39.7354 42.502 39.7034 42.5316 39.6685C42.5914 39.5976 42.6728 39.5056 42.7667 39.4017C42.9548 39.1936 43.2015 38.9301 43.455 38.6699C43.7081 38.4101 43.9712 38.1501 44.1909 37.9516C44.3002 37.8529 44.4033 37.7657 44.4912 37.7003C44.5347 37.6678 44.5789 37.6371 44.6215 37.6129C44.658 37.5922 44.7192 37.5608 44.7886 37.5515L44.7896 37.5515Z" fill="#1C5DD0" stroke="#C4DBE9" stroke-width="0.5"/>
<path d="M60.8753 45.4696C60.8753 45.4696 57.9286 43.1739 57.7073 43.0488C57.486 42.9262 43.6147 38.8421 43.6147 38.8421L43.039 39.4229C43.039 39.4229 57.099 43.6797 57.3232 43.8022C57.5474 43.9246 60.2866 46.1954 60.2866 46.1954L60.8753 45.4696ZM65.4011 49.5327C65.4011 49.5327 68.6406 52.7994 68.8348 53.0123C69.029 53.2252 74.6643 64.1959 74.6643 64.1959L75.2392 63.6987C75.2392 63.6987 69.6118 52.4972 69.5107 52.3467C69.4096 52.1962 65.6367 48.3661 65.6367 48.3661L65.4011 49.5327Z" fill="#C4DBE9"/>
<path d="M48.2834 60.2263C48.2834 60.2263 47.0463 61.8185 47.0452 61.9375C47.0442 62.0591 47.8571 62.7819 47.9507 62.7759C48.0444 62.77 49.8341 61.5577 49.8341 61.5577L49.595 60.4745L48.2834 60.2263Z" fill="#C4DBE9"/>
<path d="M76.332 34.0682C76.8275 34.0574 77.2799 34.1392 77.6073 34.3726L77.6083 34.3726C77.9789 34.6377 78.1344 35.062 78.1562 35.5343C78.1778 36.0038 78.0695 36.545 77.8862 37.0964C77.5189 38.201 76.8292 39.4121 76.1368 40.3034C73.0479 44.2801 70.3978 46.2573 67.4013 48.9438C64.4353 51.6019 61.9117 53.9202 58.7926 56.1306C57.7398 56.8769 55.5264 58.2899 53.5828 59.5118C52.6095 60.1237 51.7008 60.689 51.0363 61.1015C50.704 61.3077 50.4323 61.4756 50.2439 61.592C50.1498 61.6503 50.0764 61.6961 50.0265 61.7269C50.0017 61.7422 49.9825 61.7538 49.9697 61.7617C49.9633 61.7657 49.9583 61.7685 49.955 61.7705C49.9538 61.7713 49.9529 61.7721 49.9521 61.7726L49.9511 61.7736L49.9501 61.7737L49.7924 61.8716L49.661 61.7579L48.1133 60.4207L47.9548 60.2843L48.0791 60.0978L48.0792 60.0969L48.0801 60.0968L48.0811 60.0948C48.0823 60.093 48.0846 60.0902 48.087 60.0866C48.0918 60.0795 48.0985 60.0688 48.1078 60.055C48.1265 60.0271 48.1544 59.9854 48.1907 59.9317C48.2632 59.8241 48.3696 59.6666 48.5055 59.4676C48.7773 59.0696 49.1672 58.5047 49.6391 57.8359C50.5824 56.4986 51.8554 54.7442 53.172 53.0798C55.8806 49.6549 58.0769 47.6354 61.4236 44.3004C65.6338 40.1062 68.4483 37.6891 71.057 36.0129C72.1485 35.3116 73.4714 34.698 74.6639 34.3558C75.2599 34.1848 75.8322 34.0792 76.332 34.0682Z" fill="#1C5DD0" stroke="#C4DBE9" stroke-width="0.5"/>
<path d="M71.8117 36.6219L72.6161 37.3098C72.6161 37.3098 73.9845 36.0914 74.993 36.8701C76.0276 37.6674 74.5793 38.9845 74.5793 38.9845L75.4472 39.7747C75.4472 39.7747 77.842 37.299 75.9173 35.9103C74.2426 34.7006 71.8117 36.6219 71.8117 36.6219Z" fill="#C4DBE9"/>
<path d="M55.2528 53.6074C54.8724 53.9454 50.3704 58.7976 50.1192 59.0844C49.797 59.4542 49.6469 59.8839 50.0047 60.1193C50.3626 60.3522 50.7542 60.0742 51.1102 59.8465C51.5575 59.5625 56.7625 55.2882 57.1074 54.9929C57.6617 54.5173 57.7624 53.7161 57.1867 53.3022C56.5528 52.8464 55.8309 53.0948 55.2528 53.6074Z" fill="#C4DBE9"/>
<path d="M55.101 52.5818C54.8479 52.4081 54.5306 52.5548 54.1941 52.8875C53.9048 53.1767 53.7694 53.6055 54.0548 53.7569C54.3402 53.9084 54.723 53.636 54.9624 53.3702C55.2017 53.107 55.386 52.7789 55.101 52.5818ZM55.9396 51.0555C55.6738 51.3331 55.2865 51.788 55.6439 52.0715C55.9954 52.3503 56.5346 51.9339 56.7708 51.6911C57.0041 51.4484 59.6773 48.5905 63.055 45.4803C66.3531 42.4409 68.5705 40.5105 68.9128 40.1749C69.2021 39.8907 69.1795 39.4695 68.9289 39.3513C68.6317 39.2107 68.2999 39.333 67.8869 39.7136C67.4739 40.0942 64.6733 42.4718 62.0299 44.9329C59.3865 47.3941 56.2703 50.7079 55.9396 51.0555Z" fill="#C4DBE9"/>
<path d="M72.1971 44.3323C72.1971 44.3323 72.0444 43.4004 71.3648 43.8132C70.6353 44.2569 71.1674 45.3013 71.1674 45.3013C71.1674 45.3013 71.4416 45.0637 71.7338 44.7819C71.9757 44.5513 72.1174 44.4158 72.1971 44.3323ZM69.5807 46.7133C69.5807 46.7133 69.4772 45.5125 68.7058 46.0577C68.0904 46.4942 68.4957 47.6554 68.4957 47.6554C68.4957 47.6554 68.8494 47.3571 69.0794 47.1552C69.3124 46.9505 69.5807 46.7133 69.5807 46.7133ZM67.086 48.9017C67.086 48.9017 67.0071 47.9045 66.3161 48.28C65.6252 48.6555 66.0744 49.8114 66.0744 49.8114C66.0744 49.8114 66.381 49.554 66.5875 49.3637C66.794 49.1734 67.086 48.9017 67.086 48.9017ZM64.2607 51.4251C64.2607 51.4251 64.2168 50.4307 63.5382 50.7396C62.8331 51.0603 63.2434 52.3124 63.2434 52.3124C63.2434 52.3124 63.5884 52.0146 63.78 51.848C63.9746 51.6838 64.2607 51.4251 64.2607 51.4251Z" fill="#C4DBE9"/>
</svg>
