<svg width="121" height="122" viewBox="0 0 121 122" fill="none" xmlns="http://www.w3.org/2000/svg">
<g filter="url(#filter0_d_11_516)">
<rect x="1" y="1" width="111" height="112" rx="30" fill="#D1E8F8"/>
</g>
<path d="M75.0001 44.0001V55.5988C74.9524 55.623 74.9055 55.6506 74.8624 55.6779C74.7629 55.741 74.6496 55.8243 74.5323 55.9152C74.296 56.0982 74.01 56.3412 73.7208 56.6007C73.1499 57.1129 72.5175 57.7321 72.2071 58.1212C72.0557 58.3111 71.9422 58.4969 71.8575 58.672C70.9624 58.5018 70.0335 58.3246 69.1026 58.1486C66.6244 57.6798 64.1316 57.2121 62.2325 56.8654C61.2836 56.6921 60.4804 56.5479 59.9015 56.4493C59.6125 56.4002 59.3758 56.3625 59.2042 56.337C59.119 56.3244 59.0458 56.3142 58.9884 56.3077C58.96 56.3045 58.9303 56.3016 58.9034 56.2999C58.8881 56.2989 58.8337 56.2952 58.7745 56.3029H58.7735C58.6535 56.319 58.556 56.3715 58.5118 56.3966C58.4556 56.4286 58.4002 56.4669 58.3517 56.5031C58.2537 56.576 58.1433 56.6705 58.0313 56.7716C57.8054 56.9756 57.538 57.2397 57.2833 57.5011C57.0273 57.7638 56.7776 58.0304 56.587 58.2413C56.4922 58.3463 56.4094 58.4406 56.3468 58.5148C56.3159 58.5514 56.286 58.5869 56.2618 58.6183C56.2564 58.6254 56.2416 58.6447 56.2237 58.671L56.1671 58.7687C56.0519 59.016 56.0779 59.289 56.2276 59.5089C56.3644 59.7098 56.5893 59.8486 56.8575 59.9474V59.9484C57.0092 60.0045 58.6535 60.6526 60.7345 61.4747H52.5001V39.4747L35.0001 47.2501V61.5001H52.5001V83.8253C55.9722 82.7519 59.1059 80.7997 61.7393 78.2394C61.8203 78.2717 61.8982 78.304 61.9737 78.3341C62.065 78.3705 62.1522 78.4049 62.2345 78.4376C62.1308 78.5899 62.0475 78.7128 61.9874 78.8019C61.9511 78.8557 61.9232 78.8978 61.9044 78.9259C61.8952 78.9395 61.8877 78.95 61.8829 78.9572C61.8806 78.9606 61.8783 78.964 61.877 78.9659L61.8761 78.9679H61.8751L62.2833 79.2267L61.8751 78.9689L61.6261 79.3419L61.9435 79.6163L61.9688 79.6378C61.6022 80.1182 61.0457 80.8579 61.045 80.9376C61.0445 81.0594 61.8545 81.7791 61.9503 81.7755C62.0134 81.7715 62.8461 81.219 63.3829 80.8595L63.4903 80.9523L63.754 81.1798L64.0694 80.9845L63.8311 80.5626C64.0693 80.9845 64.0703 80.9845 64.0704 80.9845L64.0714 80.9835C64.0721 80.983 64.0732 80.9823 64.0743 80.9816C64.0775 80.9796 64.0828 80.9766 64.089 80.9728C64.1018 80.9648 64.1217 80.9529 64.1466 80.9376C64.1965 80.9068 64.2695 80.8609 64.3634 80.8029C64.5107 80.7118 64.709 80.5891 64.9474 80.4415C65.0023 80.521 65.0613 80.6067 65.1241 80.6974C65.2765 80.9171 65.4519 81.1665 65.6388 81.4347C61.9983 85.0847 57.4971 87.7799 52.5001 89.0001C39.6001 85.8501 30.0001 72.8751 30.0001 59.0001V44.0001L52.5001 34.0001L75.0001 44.0001ZM71.2716 66.3263C71.4082 66.4492 71.5441 66.5713 71.6729 66.6876C70.058 68.3184 68.6106 69.8728 66.9815 71.9327C66.4555 72.5978 65.9384 73.2784 65.4444 73.9396C65.4066 73.935 65.3675 73.9307 65.3272 73.9259C66.9176 71.5571 68.1682 68.9134 69.0089 66.1144C69.5334 66.3871 70.0754 66.1527 70.421 65.8644L70.422 65.8654C70.4714 65.8244 70.5268 65.7717 70.588 65.7159C70.7991 65.9037 71.0371 66.1155 71.2716 66.3263ZM66.6554 73.1388C66.7284 73.0437 66.8005 72.9477 66.8741 72.8527L67.3634 72.2267C67.1248 72.5283 66.8894 72.8342 66.6554 73.1388ZM70.2257 65.3947C70.1868 65.4295 70.1525 65.4624 70.1212 65.4884C70.0542 65.5445 69.9833 65.5938 69.9102 65.6329L69.9093 65.632C69.9823 65.5929 70.0532 65.5444 70.1202 65.4884C70.1517 65.4623 70.1856 65.4287 70.2247 65.3937L70.2257 65.3947ZM57.0597 59.4767C57.221 59.5365 58.9803 60.2293 61.1632 61.0919L61.1622 61.0929C58.9818 60.2313 57.2243 59.5387 57.0597 59.4777V59.4767ZM58.8985 56.8058C58.908 56.8069 58.9181 56.8084 58.9288 56.8097C58.9177 56.8083 58.9073 56.8069 58.8976 56.8058L58.8038 56.7999L58.8985 56.8058Z" fill="#1C5DD0"/>
<path fill-rule="evenodd" clip-rule="evenodd" d="M29.0001 52.3028C24.7558 57.2239 21.3291 62.1726 18.8741 66.8565C16.4805 71.4233 15.0145 75.7274 14.6065 79.4991C14.1988 83.2689 14.848 86.4916 16.6612 88.9268C18.4747 91.3619 21.3055 92.8114 24.9034 93.3252C28.503 93.8392 32.8563 93.4128 37.6817 92.1114C41.0916 91.1916 44.7311 89.8347 48.5001 88.0704C48.7224 88.1542 48.9462 88.2347 49.171 88.3126C45.2095 90.1976 41.3815 91.6405 37.7999 92.6065C32.9354 93.9185 28.5146 94.3559 24.8321 93.8301C21.1482 93.304 18.1858 91.8099 16.2735 89.2422C14.3616 86.6745 13.7028 83.3072 14.1202 79.4473C14.5376 75.5889 16.0315 71.2199 18.4444 66.6163C20.9897 61.7601 24.5645 56.6299 29.0001 51.544V52.3028ZM75.2462 20.4415C80.1103 19.1296 84.5306 18.6912 88.213 19.2168C91.8968 19.7429 94.8592 21.2373 96.7716 23.8047C98.6838 26.3724 99.3422 29.7397 98.9249 33.5997C98.5076 37.4582 97.0146 41.8279 94.6016 46.4317C93.5058 48.5225 92.2171 50.6631 90.753 52.8301C91.0631 52.8577 91.3589 52.9298 91.6124 53.0694L91.7618 53.1651L91.9171 53.292C92.2494 53.6089 92.3845 54.0514 92.4053 54.5049C92.4289 55.0175 92.3108 55.5926 92.1221 56.1602C91.7437 57.2983 91.0376 58.5362 90.3292 59.4483C88.4472 61.8712 86.7216 63.5593 84.9923 65.1085C85.1459 65.5381 85.339 66.0777 85.5596 66.6963C85.5669 66.7167 85.5738 66.7373 85.5811 66.7579C85.7209 66.6182 85.8609 66.4835 85.9796 66.3741C86.2161 66.1561 86.5231 65.9011 86.7921 65.6983C86.9259 65.5974 87.0585 65.5023 87.1739 65.4307C87.2308 65.3954 87.2936 65.36 87.3555 65.3311C87.3959 65.3123 87.5165 65.2552 87.6573 65.2559L87.6651 65.2569L87.7794 65.2696C87.8132 65.2761 87.8424 65.2838 87.8643 65.2901C87.9164 65.3051 87.9718 65.3248 88.0264 65.3467C88.1363 65.3908 88.2656 65.4525 88.4044 65.5274C88.6823 65.6774 89.0197 65.8932 89.3467 66.1641L89.6173 66.4053C89.8725 66.6512 90.0819 66.9049 90.2383 67.1182C90.3431 67.2611 90.4265 67.3903 90.4864 67.4913C90.516 67.5412 90.5414 67.5878 90.5616 67.628C90.5715 67.6478 90.5823 67.6703 90.5919 67.6934C90.5962 67.7038 90.6111 67.7449 90.6221 67.7979H90.6241C90.6248 67.8018 90.6244 67.8068 90.6251 67.8106C90.6258 67.814 90.6283 67.8169 90.629 67.8204H90.627C90.642 67.9143 90.6275 67.9919 90.6173 68.0313C90.6051 68.0777 90.5897 68.1142 90.5792 68.1358C90.5584 68.1785 90.5356 68.2125 90.5235 68.2295C90.4976 68.2662 90.4685 68.3002 90.4464 68.3252C90.3993 68.3786 90.3377 68.4427 90.2706 68.5098C90.1337 68.6467 89.9473 68.8239 89.7462 69.0098C89.4457 69.2877 89.0982 69.598 88.8145 69.8389L88.5567 70.0528C88.3958 70.1816 88.0981 70.3363 87.8106 70.4756C87.5741 70.5902 87.3017 70.7115 87.0294 70.8301C87.2381 71.418 87.4525 72.0174 87.6651 72.6182C88.4298 74.7788 89.193 76.951 89.7637 78.6016C90.0489 79.4264 90.2868 80.1233 90.4522 80.6241C90.5347 80.8738 90.5999 81.0786 90.6446 81.2266C90.6667 81.2997 90.6852 81.364 90.6983 81.4151C90.7047 81.44 90.7117 81.4679 90.7169 81.4952C90.7179 81.5003 90.7359 81.5797 90.7257 81.67C90.7126 81.7842 90.668 81.8779 90.6397 81.9307C90.608 81.9899 90.5699 82.0444 90.5352 82.0909C90.4655 82.1842 90.3777 82.2823 90.2872 82.377C90.1041 82.5684 89.8688 82.788 89.6368 82.9952C89.4028 83.2041 89.1626 83.4084 88.9698 83.5723C88.7687 83.7433 88.6344 83.8573 88.587 83.9004C88.3083 84.1541 87.965 84.1747 87.7393 84.1397C87.6186 84.1209 87.5009 84.0826 87.3975 84.0274C87.3006 83.9756 87.1802 83.89 87.0997 83.7559C87.0979 83.7531 87.0931 83.7433 87.0811 83.7247C87.0666 83.702 87.0456 83.6702 87.0196 83.6299C86.9676 83.5495 86.8932 83.4363 86.8008 83.294C86.6158 83.009 86.3559 82.6093 86.046 82.1338C85.6562 81.536 85.1861 80.8177 84.6856 80.0528C84.6403 80.0779 84.5996 80.1037 84.5616 80.1231C84.1673 80.3242 83.5521 80.4673 83.1046 80.0176L83.1036 80.0167C82.8656 79.7757 82.8213 79.4545 82.9083 79.167C82.988 78.9039 83.1687 78.6857 83.3633 78.5352L83.3673 78.5313C83.4253 78.4872 83.5035 78.4347 83.5889 78.379C83.2544 77.869 82.9188 77.3635 82.5997 76.879C82.4568 76.9577 82.2674 77.0433 82.0577 77.0801C81.7823 77.1285 81.4376 77.098 81.1641 76.8292V76.8282C80.94 76.608 80.8844 76.3076 80.9464 76.0352C81.006 75.774 81.1688 75.5395 81.3829 75.3809C81.4271 75.348 81.4819 75.3115 81.5401 75.2706C81.5153 75.2332 81.4912 75.1958 81.4669 75.1592C81.1434 74.6729 80.8676 74.261 80.6632 73.961C80.5928 73.8577 80.5304 73.7687 80.4786 73.6944C80.3563 73.7791 80.2546 73.8525 80.1993 73.8877C80.0123 74.0069 79.7889 74.0702 79.5762 74.0782C79.3618 74.0862 79.1174 74.0395 78.9092 73.8897V73.8907C78.6149 73.6804 78.569 73.3482 78.6173 73.0928C78.6624 72.8538 78.7914 72.6311 78.9464 72.4747L78.9493 72.4717C78.9605 72.4606 78.9733 72.4495 78.9864 72.4376C78.7451 72.2569 78.4923 72.0654 78.2403 71.879C78.0722 71.7546 77.9044 71.6324 77.7432 71.5137C76.2043 72.8432 74.657 74.1052 72.9258 75.3321C72.2753 75.7932 71.1874 76.5029 69.9962 77.2657C70.0203 77.3694 70.0465 77.4818 70.0743 77.6016C70.2244 78.2479 70.425 79.1109 70.6251 79.9776C70.8251 80.844 71.0247 81.7151 71.1749 82.377C71.2499 82.7079 71.3134 82.9884 71.3575 83.1895C71.3794 83.2896 71.396 83.3727 71.4083 83.4327C71.4143 83.4622 71.4209 83.4891 71.4249 83.5108C71.4267 83.5212 71.4279 83.5336 71.4298 83.546C71.4298 83.5461 71.436 83.5875 71.4356 83.6338C71.4342 83.7749 71.3747 83.8792 71.3585 83.9073C71.3338 83.9498 71.3077 83.9838 71.2911 84.004C71.2568 84.0454 71.2187 84.0838 71.1876 84.1133C71.1223 84.1752 71.0373 84.2463 70.9473 84.3194C70.7646 84.4678 70.5254 84.6507 70.2842 84.8262C70.0427 85.0021 69.792 85.1766 69.5889 85.3096C69.4883 85.3756 69.3926 85.436 69.3126 85.4815C69.2733 85.5038 69.2294 85.5264 69.1866 85.546C69.166 85.5554 69.0692 85.6021 68.9542 85.6094C68.7999 85.6192 68.6928 85.5538 68.6758 85.544C68.6392 85.5228 68.6105 85.5006 68.5948 85.4874C68.5618 85.4595 68.5319 85.4274 68.5089 85.4024C68.4602 85.3498 68.4015 85.2796 68.3389 85.2012C68.2119 85.042 68.0437 84.8183 67.8507 84.5557C67.4628 84.0281 66.9626 83.3253 66.4698 82.6251C65.9766 81.9242 65.4886 81.223 65.1241 80.6973C65.0612 80.6067 65.0023 80.5209 64.9473 80.4415C64.7094 80.5889 64.5116 80.7117 64.3643 80.8028C64.2703 80.8609 64.1965 80.9067 64.1465 80.9376C64.1217 80.9529 64.1018 80.9648 64.0889 80.9727C64.0828 80.9765 64.0775 80.9795 64.0743 80.9815C64.0732 80.9822 64.072 80.983 64.0714 80.9835L64.0704 80.9844C64.0694 80.9829 64.0545 80.9582 63.8311 80.5626L64.0694 80.9844L63.754 81.1797L63.4913 80.9522L63.3829 80.8594C62.8472 81.2182 62.0175 81.7701 61.9512 81.7764C61.8576 81.7824 61.0439 81.0591 61.045 80.9376C61.0457 80.8578 61.6022 80.1182 61.9688 79.6377L61.9434 79.6163L61.626 79.3428L61.8751 78.9698L62.2833 79.2266L61.8751 78.9688H61.876L61.877 78.9659C61.8783 78.9639 61.8806 78.9605 61.8829 78.9571C61.8877 78.9499 61.8952 78.9395 61.9044 78.9258C61.9232 78.8977 61.9511 78.8556 61.9874 78.8018C62.0474 78.7127 62.1308 78.5898 62.2344 78.4376C62.1522 78.4048 62.065 78.3704 61.9737 78.334C61.3148 78.0712 60.4351 77.719 59.5538 77.3594C58.6727 77 57.7856 76.6315 57.1153 76.3399C56.7814 76.1946 56.4961 76.0654 56.2901 75.9649C56.1884 75.9152 56.0972 75.8683 56.0274 75.8272C55.9939 75.8074 55.9538 75.7825 55.9171 75.754C55.8991 75.74 55.8717 75.717 55.8438 75.6866C55.8252 75.6663 55.7591 75.5941 55.7296 75.4766L55.7305 75.4756C55.689 75.3085 55.7403 75.1641 55.7608 75.1124C55.7881 75.0436 55.8243 74.9829 55.8536 74.9376C55.9133 74.8449 55.9919 74.7467 56.0714 74.6544C56.2336 74.4659 56.4491 74.2442 56.6622 74.0372C56.8767 73.8288 57.099 73.6253 57.2784 73.4698C57.3673 73.3927 57.4504 73.323 57.5196 73.2696C57.5534 73.2435 57.5909 73.2161 57.627 73.1924C57.645 73.1807 57.67 73.1659 57.6973 73.1514C57.7176 73.1407 57.7722 73.1122 57.8438 73.0958L57.9317 73.0831C57.9465 73.0822 57.9593 73.0811 57.9678 73.0811C57.9852 73.0811 58.0025 73.0824 58.0157 73.0831C58.043 73.0844 58.0764 73.087 58.1114 73.0899C58.1826 73.0957 58.2796 73.1044 58.3965 73.1163C58.6319 73.1402 58.9594 73.1762 59.3458 73.2198C60.1192 73.3069 61.1373 73.426 62.1495 73.546C63.1621 73.6659 64.1709 73.787 64.9258 73.878C65.116 73.9009 65.2902 73.9211 65.4444 73.9395C65.9383 73.2783 66.4555 72.5977 66.9815 71.9327C68.6106 69.8728 70.0579 68.3183 71.6729 66.6876C71.544 66.5713 71.4082 66.4491 71.2715 66.3262C71.037 66.1154 70.799 65.9036 70.588 65.7159C70.5268 65.7716 70.4713 65.8244 70.4219 65.8653L70.421 65.8643C70.0633 66.1628 69.4945 66.4048 68.9532 66.085L68.9512 66.084C68.6702 65.9157 68.5374 65.634 68.544 65.3379C68.5496 65.0913 68.6509 64.8599 68.7882 64.6749C68.5334 64.5723 68.2454 64.4561 67.9307 64.3301C67.6162 64.2042 67.2749 64.0687 66.9141 63.9249C66.862 63.9791 66.8172 64.0289 66.7813 64.0645L66.7803 64.0655C66.6605 64.1836 66.4628 64.3526 66.213 64.4571C65.9793 64.5547 65.6894 64.5972 65.3985 64.4844L65.2735 64.4258C64.7678 64.1474 64.7589 63.5667 64.9893 63.1602C64.508 62.9691 64.0155 62.7719 63.5215 62.5762C63.2522 62.4695 62.9827 62.3629 62.7149 62.2569C62.6291 62.3508 62.5599 62.4306 62.5196 62.4717C62.2233 62.7733 61.6902 62.9394 61.2364 62.7579C60.9137 62.6285 60.778 62.3439 60.7549 62.0879C60.7375 61.893 60.782 61.6946 60.8604 61.5245C58.7212 60.6795 57.0137 60.0072 56.8575 59.9493V59.9483C56.5893 59.8495 56.3644 59.7097 56.2276 59.5088C56.078 59.289 56.0519 59.0159 56.1671 58.7686L56.2237 58.6719C56.2418 58.6454 56.2563 58.6253 56.2618 58.6182C56.286 58.5868 56.3158 58.5513 56.3467 58.5147C56.4093 58.4405 56.4921 58.3462 56.587 58.2413C56.7775 58.0304 57.0273 57.7637 57.2833 57.501C57.5379 57.2396 57.8054 56.9756 58.0313 56.7715C58.1433 56.6704 58.2537 56.576 58.3516 56.503C58.4002 56.4668 58.4556 56.4285 58.5118 56.3965C58.5559 56.3715 58.6535 56.3189 58.7735 56.3028H58.7745C58.8336 56.2951 58.888 56.2989 58.9034 56.2999C58.9303 56.3016 58.9599 56.3045 58.9883 56.3077C59.0458 56.3141 59.119 56.3243 59.2042 56.337C59.3757 56.3624 59.6125 56.4001 59.9014 56.4493C60.4805 56.5478 61.2844 56.692 62.2335 56.8653C64.1325 57.212 66.6246 57.6798 69.1026 58.1485C70.0335 58.3246 70.9624 58.5018 71.8575 58.6719C71.9422 58.4969 72.0557 58.3111 72.2071 58.1211C72.5174 57.732 73.1499 57.1128 73.7208 56.6006C74.01 56.3411 74.296 56.0981 74.5323 55.9151C74.6496 55.8242 74.7628 55.7409 74.8624 55.6778C74.9116 55.6465 74.9657 55.6144 75.0206 55.5879C75.0654 55.5663 75.1557 55.5264 75.2628 55.5147L75.3799 55.5098C75.4975 55.5117 75.6138 55.5332 75.7169 55.5596C75.8624 55.597 76.0202 55.6544 76.1827 55.7276C76.5081 55.8742 76.878 56.0955 77.2432 56.3848L77.378 56.4971C77.6811 56.763 77.9066 57.0571 78.0626 57.3135C78.1518 57.4603 78.2215 57.599 78.2706 57.7188C78.3023 57.7964 78.3363 57.8919 78.3546 57.9874L78.3673 58.0831L78.3624 58.1905C78.3485 58.2904 78.3111 58.3654 78.2979 58.3917C78.2709 58.4452 78.2387 58.4925 78.213 58.5284C78.1603 58.6016 78.0938 58.6802 78.0264 58.7549C77.8888 58.9076 77.7073 59.0908 77.5225 59.2696C77.3813 59.4062 77.2316 59.543 77.0928 59.671C77.4916 59.7476 77.8378 59.814 78.1202 59.8682C78.2839 59.8997 78.4268 59.9266 78.546 59.9493C81.0656 57.6058 83.0499 56.0151 84.9337 54.8047C86.0456 54.0904 87.3923 53.4651 88.6114 53.1153C89.1505 52.9606 89.6787 52.8554 90.1592 52.8252C91.6936 50.5763 93.0374 48.3561 94.1719 46.1915C96.5654 41.6248 98.0305 37.3205 98.4385 33.5489C98.8462 29.7789 98.1974 26.5553 96.3839 24.1202C94.5703 21.6853 91.7394 20.2365 88.1417 19.7227C84.5421 19.2088 80.1886 19.6341 75.3633 20.9356C66.479 23.3319 56.0326 28.6876 45.8155 36.5254L43.92 37.3682C54.6812 28.8169 65.8203 22.9838 75.2462 20.4415ZM69.3301 84.8995C69.1404 85.0235 68.9993 85.1058 68.9581 85.1085L68.959 85.1094C69.001 85.106 69.1413 85.0229 69.3301 84.8995ZM83.4932 79.0782C83.4915 79.0804 83.49 79.0828 83.4883 79.085C83.51 79.0564 83.5335 79.0283 83.5596 79.002L83.4932 79.0782ZM57.5889 73.8379C57.3425 74.0515 57.0062 74.3672 56.7276 74.6544C57.0059 74.3676 57.3417 74.0524 57.588 73.8389L57.5889 73.8379ZM62.4044 74.085C61.9424 74.0301 61.4734 73.9759 61.0215 73.9229C61.4734 73.9759 61.9424 74.0301 62.4044 74.085ZM59.462 73.7413C59.2953 73.7223 59.138 73.7047 58.9923 73.6885C59.138 73.7047 59.2953 73.7223 59.462 73.7413ZM58.0352 73.5889C58.1384 73.5973 58.3067 73.6145 58.5255 73.6377C58.1674 73.5997 57.9446 73.5783 57.921 73.5831L58.0352 73.5889ZM79.9551 73.4708C79.9072 73.5013 79.8506 73.5267 79.7901 73.545C79.8199 73.536 79.8488 73.5259 79.876 73.5137C79.9041 73.5012 79.9308 73.4872 79.9551 73.4717C79.9949 73.4464 80.0654 73.3943 80.1553 73.3321H80.1544C80.065 73.3938 79.9949 73.4454 79.9551 73.4708ZM66.8741 72.8526C66.8005 72.9476 66.7284 73.0437 66.6553 73.1387C66.8894 72.8342 67.1248 72.5282 67.3633 72.2266L66.8741 72.8526ZM79.4112 72.1094L79.4132 72.1085L78.5635 71.4747C78.8511 71.6874 79.1402 71.9059 79.4112 72.1094ZM90.1163 67.9669C90.1183 67.9641 90.1214 67.9624 90.1231 67.96C90.1324 67.947 90.1377 67.9379 90.1368 67.9336H90.1358C90.1369 67.9387 90.1294 67.9496 90.1163 67.9669ZM70.1202 65.4883C69.9861 65.6005 69.837 65.6841 69.6846 65.7178C69.723 65.7094 69.7612 65.698 69.7989 65.6836C69.8364 65.6693 69.8737 65.6524 69.9102 65.6329C69.9833 65.5938 70.0542 65.5444 70.1212 65.4883C70.1524 65.4625 70.1861 65.4293 70.2247 65.3946V65.3936L70.1202 65.4883ZM69.2061 64.919C69.1815 64.9486 69.1593 64.9798 69.1397 65.0118L69.2071 64.919C69.221 64.9021 69.2381 64.8838 69.2569 64.8633H69.2559C69.237 64.8836 69.22 64.9021 69.2061 64.919ZM66.2774 63.8614C66.3074 63.8389 66.3368 63.8171 66.3633 63.794L66.4298 63.7325H66.4278C66.3842 63.7742 66.3338 63.8191 66.2774 63.8614ZM63.084 61.8536C63.8349 62.1509 64.5946 62.454 65.3253 62.7442L65.3272 62.7422L63.7335 62.1085C63.5172 62.0227 63.3007 61.937 63.085 61.8516L63.084 61.8536ZM57.0596 59.4776C57.2191 59.5367 58.882 60.1915 60.9757 61.0186C58.88 60.1906 57.2162 59.5346 57.0596 59.4766V59.4776ZM58.9288 56.8096C58.918 56.8083 58.908 56.8068 58.8985 56.8057L58.8038 56.7999C58.8194 56.7979 58.8617 56.8014 58.9288 56.8096Z" fill="#1A5ACE"/>
<path d="M69.5801 76.5986L69.5811 76.5995C69.5812 76.6003 69.5807 76.6019 69.581 76.6034C69.5818 76.6067 69.5833 76.6123 69.5848 76.6188C69.5878 76.6317 69.5922 76.6508 69.5979 76.6755C69.6096 76.7259 69.6277 76.7998 69.6496 76.8938C69.6934 77.082 69.7556 77.3516 69.8307 77.6748C69.9808 78.321 70.1804 79.1839 70.3805 80.0505C70.5806 80.9171 70.7811 81.788 70.9311 82.4495C71.0062 82.7803 71.0691 83.0595 71.113 83.2598C71.1349 83.3597 71.1524 83.441 71.1644 83.4995C71.1704 83.5285 71.1749 83.5537 71.1784 83.5728C71.18 83.5819 71.1817 83.5912 71.183 83.5998C71.1834 83.6025 71.1867 83.6253 71.1865 83.6494C71.1857 83.7219 71.1551 83.7766 71.1453 83.7935C71.1312 83.8177 71.1155 83.8377 71.1038 83.8518C71.08 83.8807 71.0513 83.9103 71.0232 83.9369C70.9656 83.9916 70.8876 84.0582 70.7994 84.1298C70.6218 84.2741 70.3854 84.453 70.1463 84.6271C69.9072 84.8012 69.6613 84.9731 69.4632 85.1029C69.3646 85.1674 69.2745 85.2236 69.2017 85.2649C69.1657 85.2853 69.1296 85.3045 69.097 85.3194C69.0754 85.3292 69.0189 85.3555 68.9564 85.3596C68.8778 85.3645 68.8222 85.331 68.8116 85.3248C68.7913 85.3131 68.775 85.2999 68.7642 85.2908C68.7416 85.2717 68.7184 85.2483 68.6975 85.2257C68.6545 85.1792 68.6002 85.1141 68.5385 85.0367C68.4143 84.881 68.2479 84.6603 68.0551 84.3979C67.6687 83.8721 67.169 83.1713 66.6763 82.4712C66.1834 81.7707 65.6959 81.0696 65.3316 80.5442C65.1494 80.2815 64.9979 80.0627 64.892 79.9094C64.8391 79.8328 64.7982 79.7719 64.7699 79.7308C64.7558 79.7103 64.7445 79.6947 64.7372 79.6841C64.7336 79.6788 64.7304 79.6746 64.7285 79.6719C64.7277 79.6708 64.727 79.6698 64.7266 79.6691L64.7266 79.6682L64.6343 79.5345L64.7291 79.3898L66.2715 77.0168L66.3376 76.914L66.4547 76.8949L69.3147 76.4251L69.5313 76.3889L69.5801 76.5986ZM57.9865 73.3331C58.0098 73.3342 58.0393 73.3366 58.0732 73.3393C58.142 73.3449 58.2377 73.3535 58.3544 73.3654C58.5885 73.3892 58.9143 73.4247 59.3003 73.4682C60.0731 73.5553 61.0903 73.6747 62.1027 73.7946C63.115 73.9146 64.1228 74.0358 64.8778 74.1267C65.2551 74.1722 65.5696 74.21 65.7895 74.2366C65.8991 74.2499 65.9856 74.2601 66.0444 74.2673C66.0738 74.2708 66.0973 74.2738 66.1125 74.2756C66.1197 74.2765 66.1253 74.277 66.1291 74.2775C66.131 74.2777 66.1329 74.278 66.1339 74.2782L66.1349 74.2781L66.4414 74.3162L66.3161 74.6111L65.5511 76.4116L65.5293 76.4628L65.489 76.5014L63.4494 78.4767L63.3276 78.5947L63.1781 78.5359L63.1772 78.536C63.1763 78.5356 63.1748 78.5349 63.1733 78.5343C63.1699 78.5329 63.1644 78.531 63.1577 78.5284C63.1445 78.5232 63.1251 78.5149 63.0995 78.5048C63.048 78.4844 62.9723 78.4545 62.8762 78.4165C62.6842 78.3404 62.4097 78.2315 62.0803 78.1001C61.4215 77.8374 60.5417 77.4852 59.6606 77.1257C58.78 76.7665 57.8963 76.3996 57.2286 76.1092C56.8953 75.9641 56.6133 75.8369 56.4117 75.7385C56.3116 75.6896 56.2265 75.6454 56.1645 75.6088C56.1343 75.591 56.104 75.5717 56.0783 75.5518C56.0657 75.542 56.0488 75.5281 56.0329 75.5108C56.0215 75.4984 55.9867 75.4601 55.9715 75.3995L55.9725 75.3985C55.9501 75.3084 55.9772 75.2275 55.9919 75.1903C56.01 75.1447 56.0357 75.101 56.0602 75.063C56.1099 74.986 56.1788 74.8984 56.2553 74.8096C56.4098 74.6301 56.6189 74.4154 56.8294 74.2109C57.0406 74.0057 57.2584 73.8059 57.4334 73.6543C57.5206 73.5787 57.5996 73.5129 57.663 73.464C57.6943 73.4398 57.7254 73.4169 57.7532 73.3987C57.7669 73.3897 57.7831 73.3794 57.8002 73.3703C57.8138 73.3631 57.8443 73.3485 57.8823 73.3398L57.9505 73.3325C57.9622 73.3325 57.9751 73.3326 57.9865 73.3331Z" fill="#1C5DD0" stroke="#C4DBE9" stroke-width="0.5"/>
<path d="M84.775 78.1336L85.5879 78.8539L85.8295 79.0679L85.5385 79.2552L85.5376 79.2553L85.5366 79.2563C85.5351 79.2572 85.5325 79.2589 85.5297 79.2607C85.5242 79.2642 85.5156 79.2693 85.5052 79.2759C85.4843 79.2892 85.4542 79.3088 85.4171 79.3322C85.3426 79.3794 85.2399 79.4439 85.1272 79.5137C84.9051 79.6509 84.6327 79.8155 84.4624 79.9024C84.1065 80.0839 83.6271 80.176 83.2873 79.8346L83.2863 79.8337C83.1145 79.6596 83.0834 79.4328 83.1466 79.2238C83.2062 79.0269 83.3448 78.8528 83.5055 78.7286L83.5074 78.7275C83.6374 78.6288 83.8891 78.4719 84.0952 78.3466C84.2009 78.2823 84.2996 78.2242 84.3714 78.1817C84.4072 78.1604 84.4362 78.1424 84.4566 78.1304C84.4665 78.1245 84.4746 78.1204 84.48 78.1172C84.4828 78.1156 84.4855 78.1137 84.4869 78.1128L84.4879 78.1118L84.6465 78.0197L84.775 78.1336ZM82.6402 75.0066L83.4831 75.6362L83.7598 75.8431L83.4522 76.0471L83.4512 76.0471L83.4502 76.0482C83.449 76.049 83.4467 76.0499 83.4443 76.0515C83.4396 76.0546 83.4327 76.0596 83.4238 76.0655C83.4057 76.0774 83.3793 76.0951 83.3473 76.1162C83.2835 76.1583 83.1958 76.2154 83.1014 76.2773C82.9142 76.3999 82.6939 76.5433 82.5773 76.6141L82.5764 76.6132C82.4434 76.6949 82.2472 76.7964 82.0329 76.8342C81.8105 76.8732 81.5506 76.8459 81.3449 76.6437C81.1841 76.4859 81.1438 76.2716 81.1892 76.0729C81.2334 75.88 81.356 75.7022 81.5218 75.5793L82.0325 75.2228C82.1206 75.163 82.2014 75.1081 82.2598 75.0688C82.2889 75.0493 82.313 75.0334 82.3294 75.0224C82.3374 75.017 82.3437 75.0124 82.348 75.0095C82.3501 75.0081 82.3518 75.007 82.3529 75.0063L82.3539 75.0062L82.5047 74.9059L82.6402 75.0066ZM80.1894 71.928C80.2125 71.928 80.2329 71.9307 80.2468 71.9331C80.2741 71.938 80.3 71.9458 80.3207 71.9528C80.3635 71.9674 80.4131 71.9885 80.4624 72.0112C80.5623 72.0572 80.6848 72.1198 80.8008 72.1819C80.9176 72.2445 81.0314 72.3085 81.1158 72.3561C81.158 72.3799 81.1931 72.4 81.2176 72.4141C81.2295 72.4209 81.2391 72.4261 81.2457 72.4298C81.2488 72.4316 81.2517 72.4332 81.2535 72.4342L81.2554 72.4351L81.2564 72.436L81.581 72.6242L81.2546 72.8558L81.2546 72.8568C81.2541 72.8571 81.2526 72.8573 81.2517 72.8579C81.2498 72.8592 81.2473 72.8618 81.2438 72.8643C81.2366 72.8694 81.2258 72.8763 81.2125 72.8858C81.1855 72.905 81.1468 72.9327 81.0997 72.9661C81.0055 73.033 80.8777 73.1237 80.7439 73.2181C80.4799 73.4043 80.1816 73.6138 80.0775 73.6802C79.9355 73.7706 79.7582 73.8221 79.5853 73.8286C79.411 73.8351 79.2197 73.7959 79.0616 73.6813L79.0616 73.6803C78.8617 73.5362 78.8253 73.3111 78.861 73.1221C78.8952 72.9409 78.9964 72.7667 79.1165 72.6452L79.1184 72.6432C79.2265 72.5358 79.4682 72.3623 79.6578 72.2302C79.7578 72.1605 79.8522 72.096 79.9214 72.0495C79.9561 72.0262 79.9849 72.0076 80.0047 71.9944C80.0144 71.988 80.0219 71.9828 80.0272 71.9793C80.0296 71.9777 80.0317 71.9759 80.0331 71.975L80.0351 71.9739L80.0576 71.9588L80.0811 71.9495C80.128 71.9301 80.169 71.928 80.1894 71.928ZM70.1084 63.9256L71.114 64.4385L71.4039 64.587L71.1582 64.8339L71.1513 64.8412C71.1468 64.8457 71.1402 64.8525 71.1317 64.8609C71.1146 64.8781 71.0894 64.9027 71.059 64.9329C70.9981 64.9933 70.9146 65.0766 70.8222 65.1666C70.6401 65.3437 70.4153 65.5576 70.2712 65.6769C69.9584 65.9384 69.5096 66.1137 69.0919 65.867L69.0909 65.8661C68.8832 65.7419 68.7889 65.5394 68.7938 65.3248C68.7984 65.1215 68.8898 64.9219 69.0198 64.7659C69.1215 64.6423 69.3275 64.4392 69.4955 64.2779C69.5825 64.1944 69.6639 64.118 69.7234 64.0623C69.7532 64.0345 69.7781 64.012 69.7951 63.9963C69.8035 63.9885 69.8102 63.9826 69.8147 63.9785C69.8169 63.9764 69.8185 63.9744 69.8197 63.9733L69.8216 63.9722L69.8216 63.9712L69.9562 63.8475L70.1084 63.9256ZM66.2212 62.3555L67.2384 62.7642L67.5587 62.8931L67.3079 63.1618L67.2853 63.1857C67.271 63.201 67.2506 63.2232 67.2253 63.25C67.1747 63.304 67.1047 63.3783 67.0297 63.4577C66.8811 63.6149 66.7057 63.7982 66.6119 63.8912L66.6119 63.8922C66.5033 63.9993 66.3356 64.141 66.1316 64.2263C65.9191 64.3151 65.6599 64.344 65.4052 64.2041C64.9939 63.9778 65.0272 63.4629 65.2829 63.1559C65.3806 63.0382 65.5462 62.854 65.6834 62.703C65.7526 62.6267 65.8163 62.5572 65.8624 62.5071C65.8852 62.4823 65.9035 62.462 65.9165 62.448C65.9229 62.4411 65.9278 62.4352 65.9312 62.4315C65.9328 62.4298 65.9343 62.4283 65.9352 62.4273L65.9371 62.4262L66.061 62.2915L66.2212 62.3555ZM62.1349 60.6096C62.1809 60.6143 62.2358 60.6238 62.2905 60.6349C62.4014 60.6574 62.5391 60.6912 62.6705 60.7259C62.8031 60.7608 62.9334 60.7974 63.0301 60.825C63.0783 60.8388 63.1186 60.8504 63.1466 60.8586C63.1604 60.8626 63.1712 60.866 63.1787 60.8683L63.1904 60.8714L63.5479 60.9785L63.2842 61.2724L63.2842 61.2734L63.2823 61.2745C63.2809 61.2761 63.279 61.2788 63.2764 61.2817C63.2707 61.2881 63.2615 61.2977 63.2508 61.3097C63.2294 61.3336 63.1987 61.3684 63.1613 61.4101C63.0865 61.4934 62.9852 61.606 62.8789 61.7237C62.669 61.9563 62.4315 62.217 62.3479 62.3021C62.1215 62.5325 61.6988 62.6661 61.3436 62.524C61.1179 62.4338 61.021 62.2369 61.004 62.0479C60.9878 61.8676 61.0398 61.6783 61.1273 61.5325C61.1704 61.4609 61.2416 61.3707 61.3117 61.2876C61.3853 61.2002 61.4701 61.1048 61.5497 61.0177C61.6297 60.9302 61.7063 60.8493 61.7621 60.7904C61.7899 60.7612 61.813 60.7375 61.829 60.7208L61.8536 60.6948L61.8703 60.6772L61.8889 60.6643C61.9336 60.6314 61.9771 60.6191 61.9975 60.6145C62.021 60.6091 62.0416 60.6075 62.056 60.6068C62.0846 60.6054 62.1126 60.6074 62.1349 60.6096ZM75.2717 55.7642C75.3853 55.7519 75.5131 55.7702 75.6386 55.8023C75.7684 55.8356 75.9141 55.8883 76.0678 55.9576C76.3752 56.0961 76.7292 56.3072 77.0811 56.5861L77.2068 56.6903C77.4899 56.9388 77.7007 57.2145 77.8468 57.4548C77.9304 57.5923 77.9942 57.7203 78.0383 57.8282C78.0791 57.9278 78.1125 58.0325 78.1176 58.1159C78.1226 58.1973 78.0904 58.2648 78.0771 58.2912C78.0591 58.3271 78.0365 58.3617 78.0148 58.3918C77.971 58.4529 77.9124 58.5227 77.8475 58.5947C77.7162 58.7404 77.5394 58.918 77.356 59.0954C76.9889 59.4506 76.5775 59.8211 76.4045 59.9689C76.2459 60.1044 75.9431 60.3988 75.6727 60.6674C75.539 60.8001 75.4156 60.9247 75.3257 61.0154C75.281 61.0606 75.2439 61.0971 75.2186 61.1227C75.2061 61.1355 75.1967 61.1461 75.1901 61.1529C75.1868 61.1562 75.1839 61.1585 75.1823 61.1602L75.1803 61.1623L75.0505 61.2945L74.8934 61.2235L72.0109 59.931L71.9003 59.8814L71.8799 59.7598L71.8799 59.7568C71.8798 59.756 71.8792 59.7551 71.879 59.754C71.8786 59.7514 71.8786 59.7479 71.8781 59.7443C71.8771 59.7368 71.8755 59.7271 71.8745 59.7152C71.8723 59.6915 71.8707 59.659 71.8704 59.6189C71.87 59.5384 71.8761 59.4262 71.9026 59.2908C71.9557 59.0187 72.0884 58.6565 72.3976 58.2687C72.6926 57.8989 73.3094 57.2926 73.8786 56.7819C74.1653 56.5247 74.4462 56.2861 74.6755 56.1085C74.7897 56.0201 74.8951 55.9435 74.9843 55.8869C75.0286 55.8587 75.0733 55.8335 75.1154 55.8132C75.1525 55.7953 75.2092 55.771 75.2717 55.7642Z" fill="#C4DBE9" stroke="#C4DBE9" stroke-width="0.5"/>
<path d="M72.9625 59.7366C72.9625 59.7366 75.2319 57.2157 75.8319 57.5345C76.4376 57.8554 73.9868 60.0512 73.9868 60.0512L72.9625 59.7366Z" fill="#C4DBE9"/>
<path d="M72.4487 59.6174C72.4487 59.6174 73.732 58.4196 73.8741 58.2334C74.0162 58.0472 73.8897 57.7895 73.7769 57.6499C73.664 57.5128 73.4888 57.4682 73.4888 57.4682C73.4888 57.4682 72.5839 58.2218 72.2711 58.8517C72.0268 59.3405 72.0657 59.5785 72.0657 59.5785L72.4487 59.6174ZM74.6364 60.0529C74.6364 60.0529 75.1233 59.5891 75.3678 59.4015C75.5887 59.233 75.9136 59.2276 76.1059 59.314C76.3537 59.4248 76.4103 59.6389 76.4103 59.6389L75.5072 60.5189L74.6364 60.0529Z" fill="#1C5DD0"/>
<path d="M87.6417 65.5072C87.6916 65.5084 87.7415 65.5206 87.7798 65.5316C87.8222 65.5439 87.8697 65.5603 87.9196 65.5803C88.0198 65.6205 88.1406 65.6782 88.2737 65.7501C88.5401 65.8939 88.8653 66.1012 89.18 66.362L89.437 66.5926C89.681 66.8275 89.8822 67.0704 90.033 67.2759C90.1336 67.4132 90.2135 67.5355 90.2695 67.6298C90.2973 67.6766 90.3205 67.7183 90.3375 67.7524C90.3459 67.7691 90.3538 67.7865 90.3605 67.8026C90.3643 67.8119 90.3724 67.8367 90.3784 67.8659L90.3804 67.8658C90.3808 67.8676 90.38 67.8698 90.3803 67.8716C90.3807 67.8736 90.3819 67.8754 90.3822 67.8774L90.3803 67.8775C90.3879 67.9251 90.3817 67.9646 90.3764 67.9851C90.3701 68.0091 90.3622 68.0283 90.3564 68.0401C90.3451 68.0633 90.3321 68.0821 90.3238 68.0939C90.3063 68.1186 90.2847 68.1443 90.2647 68.1669C90.2234 68.2138 90.1666 68.2733 90.1006 68.3394C89.9673 68.4727 89.7838 68.647 89.5839 68.8319C89.1849 69.2008 88.7078 69.6235 88.4098 69.862C88.2774 69.9681 88.0086 70.1094 87.7148 70.2517C87.4098 70.3995 87.0445 70.5633 86.6938 70.7119C86.3437 70.8602 86.0044 70.9954 85.7506 71.0871C85.6248 71.1325 85.5134 71.1693 85.4311 71.1913C85.3926 71.2016 85.3471 71.2122 85.3053 71.2159C85.288 71.2174 85.2456 71.2205 85.1992 71.208C85.1748 71.2014 85.1321 71.1863 85.0935 71.1484C85.0489 71.1043 85.0224 71.0419 85.023 70.9742L85.0231 70.9625L85.0241 70.9625C85.024 70.9626 85.0232 70.9208 85.0194 70.8222C85.016 70.7319 85.0106 70.6083 85.0041 70.4631C84.9911 70.1729 84.9731 69.7967 84.9548 69.4238C84.9365 69.0509 84.9183 68.6813 84.9044 68.4052C84.8974 68.2674 84.891 68.1527 84.8869 68.0725C84.8848 68.0324 84.8829 68.0006 84.8819 67.9792C84.8813 67.9686 84.8814 67.9603 84.8811 67.9548C84.8809 67.952 84.8812 67.9494 84.8812 67.948L84.8802 67.9471L84.8753 67.8351L84.955 67.75L84.9569 67.748C84.9584 67.7464 84.9601 67.7437 84.9629 67.7408C84.9685 67.7348 84.9768 67.726 84.9874 67.7148C85.0087 67.6924 85.0397 67.6603 85.0779 67.6202C85.1545 67.5399 85.2613 67.428 85.3816 67.3042C85.6209 67.058 85.9187 66.7574 86.1402 66.5533C86.3699 66.3417 86.67 66.0926 86.9321 65.8949C87.0628 65.7963 87.1883 65.7071 87.2938 65.6416C87.346 65.6092 87.3982 65.5793 87.4465 65.5567C87.4839 65.5393 87.558 65.507 87.6378 65.5075L87.6417 65.5072Z" fill="#C4DBE9" stroke="#C4DBE9" stroke-width="0.5"/>
<path d="M85.5418 69.3192C85.5418 69.3192 87.685 67.1683 88.1677 67.5147C88.6503 67.8611 85.7115 70.3158 85.7115 70.3158L85.5418 69.3192Z" fill="#C4DBE9"/>
<path d="M85.3881 68.8228L86.1705 68.034C86.448 67.7556 86.4335 67.4073 86.3529 67.2605C86.2492 67.0722 85.9773 67.0439 85.9773 67.0439L84.9591 68.0376L85.3881 68.8228ZM86.1082 70.45C86.1082 70.45 87.3345 69.4229 87.5437 69.2603C87.7529 69.0976 88.0905 68.9699 88.3555 69.1125C88.5535 69.2189 88.6401 69.3576 88.6401 69.3576C88.6401 69.3576 87.6955 70.2985 87.1277 70.6459C86.7717 70.8634 85.9334 71.0281 85.9334 71.0281L86.1082 70.45Z" fill="#1C5DD0"/>
<path d="M84.3657 64.1134L84.3657 64.1144L84.3667 64.1162C84.3674 64.1183 84.369 64.1216 84.3705 64.1258C84.3734 64.1339 84.3772 64.1462 84.3828 64.1621C84.3944 64.1945 84.4117 64.2434 84.4342 64.3062C84.4791 64.4317 84.5453 64.6157 84.629 64.8501C84.7967 65.3191 85.0367 65.9896 85.3239 66.795C85.8984 68.4057 86.6637 70.5567 87.4283 72.7171C88.1929 74.8776 88.9567 77.0484 89.5272 78.6982C89.8124 79.5229 90.0497 80.2184 90.2146 80.7177C90.2969 80.9668 90.3622 81.1684 90.4061 81.3136C90.4279 81.3857 90.4453 81.4465 90.4571 81.4928C90.4629 81.5156 90.4683 81.5382 90.4721 81.5582C90.4736 81.5663 90.4826 81.6113 90.4771 81.6594C90.4694 81.726 90.4434 81.7841 90.4221 81.824C90.3989 81.8671 90.3701 81.91 90.3401 81.9502C90.2801 82.0305 90.201 82.1193 90.1138 82.2105C89.9383 82.394 89.7088 82.6073 89.4782 82.8131C89.2469 83.0196 89.01 83.2225 88.8177 83.386C88.6211 83.5531 88.4792 83.6728 88.427 83.7202C88.231 83.8987 87.9798 83.9207 87.7953 83.8921C87.699 83.8772 87.6059 83.8473 87.5263 83.8048C87.4501 83.7641 87.3688 83.7029 87.3166 83.6161C87.3166 83.6161 87.3153 83.6129 87.3108 83.6058C87.3066 83.5991 87.3009 83.59 87.2935 83.5785C87.2788 83.5556 87.2581 83.5233 87.232 83.4829C87.1799 83.4022 87.1054 83.2888 87.0129 83.1465C86.8277 82.8613 86.5676 82.4619 86.2575 81.9862C85.6374 81.0349 84.8165 79.7773 83.9884 78.5145C83.1603 77.2516 82.3251 75.9837 81.6777 75.0103C81.3539 74.5234 81.0773 74.1105 80.872 73.8093C80.7694 73.6587 80.6852 73.5366 80.622 73.4475C80.5904 73.4029 80.5647 73.3675 80.545 73.3411C80.5351 73.328 80.5269 73.318 80.5209 73.3104C80.5158 73.304 80.5137 73.3007 80.5132 73.3002C80.4867 73.2717 80.407 73.2021 80.2715 73.093C80.1412 72.9881 79.9709 72.8554 79.7743 72.705C79.3808 72.404 78.885 72.0341 78.3983 71.674C77.9116 71.3139 77.4344 70.9643 77.0792 70.7048C76.9019 70.5752 76.7551 70.468 76.6524 70.3932C76.6011 70.3559 76.5608 70.3261 76.5333 70.3061C76.5196 70.2962 76.5085 70.2889 76.5014 70.2838C76.4981 70.2814 76.4954 70.2797 76.4937 70.2784C76.4928 70.2778 76.4922 70.2769 76.4917 70.2766L76.3098 70.1447L76.4401 69.9431L79.0598 65.9147L79.1092 65.8383L79.1932 65.8066L84.0581 63.9787L84.2868 63.8929L84.3657 64.1134ZM58.7896 56.5515C58.8227 56.5472 58.8553 56.5493 58.8704 56.5502C58.8918 56.5516 58.9169 56.5533 58.9434 56.5563C58.9968 56.5624 59.0667 56.5717 59.1507 56.5842C59.3197 56.6092 59.5537 56.6482 59.8422 56.6973C60.4199 56.7956 61.2223 56.9381 62.1714 57.1114C64.0698 57.458 66.5616 57.9257 69.0398 58.3944C71.5181 58.8632 73.9836 59.3331 75.8292 59.6864C76.7519 59.863 77.5197 60.0106 78.057 60.1138C78.3255 60.1653 78.5365 60.2065 78.6803 60.2342C78.7522 60.248 78.8075 60.2586 78.8446 60.2657C78.863 60.2692 78.877 60.272 78.8865 60.2738C78.8909 60.2746 78.8948 60.2746 78.8972 60.2751C78.8982 60.2753 78.8995 60.2757 78.9001 60.2759L78.9011 60.2758L79.0732 60.3088L79.0862 60.4856L79.0862 60.4924C79.0865 60.4966 79.0873 60.5028 79.0879 60.5108C79.0892 60.5275 79.0908 60.5525 79.0931 60.5837C79.0979 60.6461 79.1051 60.7355 79.1133 60.843C79.1297 61.058 79.1523 61.3455 79.1754 61.6364C79.1986 61.9277 79.222 62.2223 79.2423 62.45C79.2524 62.564 79.2616 62.6606 79.269 62.7314C79.2727 62.7666 79.2764 62.794 79.279 62.8137C79.2794 62.8169 79.2786 62.8201 79.2789 62.8225L79.2882 62.8766C79.2912 62.9274 79.2773 62.9683 79.2697 62.988C79.2582 63.0177 79.2439 63.0395 79.236 63.0507C79.2199 63.0737 79.2031 63.0917 79.1937 63.1012C79.1727 63.1222 79.1468 63.1438 79.123 63.1633C79.0734 63.2037 79.0039 63.2565 78.92 63.3177C78.7505 63.4414 78.5086 63.6109 78.2202 63.8092C77.6424 64.2063 76.8691 64.7255 76.0968 65.2403C75.3244 65.7551 74.5508 66.2664 73.9707 66.6491C73.6807 66.8404 73.4385 67 73.2692 67.1114C73.185 67.1668 73.1186 67.2102 73.0733 67.24C73.0506 67.2549 73.0331 67.2668 73.0214 67.2745C73.0155 67.2784 73.0106 67.2812 73.0076 67.2832C73.0063 67.2841 73.0054 67.2849 73.0047 67.2853L73.0037 67.2864L72.8391 67.3944L72.7029 67.2704L72.7019 67.2685C72.7007 67.2674 72.6984 67.2661 72.6961 67.264C72.6915 67.2598 72.6846 67.2537 72.6758 67.2457C72.6577 67.2293 72.6305 67.2044 72.5966 67.1737C72.5287 67.1122 72.4314 67.0242 72.3144 66.9183C72.08 66.7063 71.7659 66.4221 71.4457 66.1342C71.1252 65.8461 70.7985 65.5545 70.5411 65.327C70.4123 65.2133 70.3016 65.1155 70.2173 65.0431C70.175 65.0069 70.1395 64.978 70.1128 64.956C70.0995 64.9451 70.0891 64.9361 70.0809 64.9298C70.0767 64.9265 70.0741 64.9239 70.0722 64.9225C70.085 64.9308 70.0877 64.9314 70.0509 64.9151C70.0235 64.9029 69.9842 64.8853 69.9334 64.864C69.8323 64.8214 69.6887 64.7625 69.5084 64.689C69.1473 64.5418 68.6408 64.3382 68.0369 64.0964C66.8293 63.613 65.2323 62.9778 63.6273 62.3418C62.021 61.7053 60.4083 61.0686 59.17 60.5805L56.9587 59.7129C56.7129 59.6225 56.5369 59.5046 56.4369 59.3577C56.3304 59.2013 56.3176 59.0197 56.3916 58.8608L56.4558 58.7621C56.4763 58.7354 56.5021 58.7034 56.5316 58.6685C56.5914 58.5976 56.6728 58.5056 56.7667 58.4017C56.9548 58.1936 57.2015 57.9301 57.455 57.6699C57.7081 57.4101 57.9712 57.1501 58.1909 56.9516C58.3002 56.8529 58.4034 56.7657 58.4912 56.7003C58.5348 56.6678 58.5789 56.6371 58.6215 56.6129C58.658 56.5922 58.7193 56.5608 58.7886 56.5515L58.7896 56.5515Z" fill="#1C5DD0" stroke="#C4DBE9" stroke-width="0.5"/>
<path d="M74.8753 64.4696C74.8753 64.4696 71.9286 62.1739 71.7073 62.0488C71.4861 61.9262 57.6148 57.8421 57.6148 57.8421L57.0391 58.4229C57.0391 58.4229 71.099 62.6797 71.3232 62.8022C71.5475 62.9246 74.2867 65.1954 74.2867 65.1954L74.8753 64.4696ZM79.4012 68.5327C79.4012 68.5327 82.6407 71.7994 82.8349 72.0123C83.029 72.2252 88.6643 83.1959 88.6643 83.1959L89.2393 82.6987C89.2393 82.6987 83.6119 71.4972 83.5108 71.3467C83.4097 71.1962 79.6367 67.3661 79.6367 67.3661L79.4012 68.5327Z" fill="#C4DBE9"/>
<path d="M62.2834 79.2263C62.2834 79.2263 61.0463 80.8185 61.0452 80.9375C61.0442 81.0591 61.8571 81.7819 61.9507 81.7759C62.0444 81.77 63.8341 80.5577 63.8341 80.5577L63.595 79.4745L62.2834 79.2263Z" fill="#C4DBE9"/>
<path d="M90.332 53.0682C90.8275 53.0574 91.2799 53.1392 91.6073 53.3726L91.6083 53.3726C91.9789 53.6377 92.1344 54.062 92.1562 54.5343C92.1778 55.0038 92.0695 55.545 91.8862 56.0964C91.5189 57.201 90.8292 58.4121 90.1368 59.3034C87.0479 63.2801 84.3978 65.2573 81.4013 67.9438C78.4353 70.6019 75.9117 72.9202 72.7926 75.1306C71.7398 75.8769 69.5264 77.2899 67.5828 78.5118C66.6095 79.1237 65.7008 79.689 65.0363 80.1015C64.704 80.3077 64.4323 80.4756 64.2439 80.592C64.1498 80.6503 64.0764 80.6961 64.0265 80.7269C64.0017 80.7422 63.9825 80.7538 63.9697 80.7617C63.9633 80.7657 63.9583 80.7685 63.955 80.7705C63.9538 80.7713 63.9529 80.7721 63.9521 80.7726L63.9511 80.7736L63.9501 80.7737L63.7924 80.8716L63.661 80.7579L62.1133 79.4207L61.9548 79.2843L62.0791 79.0978L62.0792 79.0969L62.0801 79.0968L62.0811 79.0948C62.0823 79.093 62.0846 79.0902 62.087 79.0866C62.0918 79.0795 62.0985 79.0688 62.1078 79.055C62.1265 79.0271 62.1544 78.9854 62.1907 78.9317C62.2632 78.8241 62.3696 78.6666 62.5055 78.4676C62.7773 78.0696 63.1672 77.5047 63.6391 76.8359C64.5824 75.4986 65.8554 73.7442 67.172 72.0798C69.8806 68.6549 72.0769 66.6354 75.4236 63.3004C79.6338 59.1062 82.4483 56.6891 85.057 55.0129C86.1485 54.3116 87.4714 53.698 88.6639 53.3558C89.2599 53.1848 89.8322 53.0792 90.332 53.0682Z" fill="#1C5DD0" stroke="#C4DBE9" stroke-width="0.5"/>
<path d="M85.8117 55.6219L86.6162 56.3098C86.6162 56.3098 87.9846 55.0914 88.993 55.8701C90.0277 56.6674 88.5794 57.9845 88.5794 57.9845L89.4473 58.7747C89.4473 58.7747 91.8421 56.299 89.9173 54.9103C88.2426 53.7006 85.8117 55.6219 85.8117 55.6219Z" fill="#C4DBE9"/>
<path d="M69.2528 72.6074C68.8724 72.9454 64.3704 77.7976 64.1192 78.0844C63.797 78.4542 63.6469 78.8839 64.0047 79.1193C64.3626 79.3522 64.7542 79.0742 65.1102 78.8465C65.5575 78.5625 70.7625 74.2882 71.1074 73.9929C71.6617 73.5173 71.7624 72.7161 71.1867 72.3022C70.5528 71.8464 69.8309 72.0948 69.2528 72.6074Z" fill="#C4DBE9"/>
<path d="M69.101 71.5818C68.8479 71.4081 68.5306 71.5548 68.1941 71.8875C67.9048 72.1767 67.7694 72.6055 68.0548 72.7569C68.3402 72.9084 68.723 72.636 68.9624 72.3702C69.2017 72.107 69.386 71.7789 69.101 71.5818ZM69.9396 70.0555C69.6738 70.3331 69.2865 70.788 69.6439 71.0715C69.9954 71.3503 70.5346 70.9339 70.7708 70.6911C71.0041 70.4484 73.6773 67.5905 77.055 64.4803C80.3531 61.4409 82.5705 59.5105 82.9128 59.1749C83.2021 58.8907 83.1795 58.4695 82.9289 58.3513C82.6317 58.2107 82.2999 58.333 81.8869 58.7136C81.4739 59.0942 78.6733 61.4718 76.0299 63.9329C73.3865 66.3941 70.2703 69.7079 69.9396 70.0555Z" fill="#C4DBE9"/>
<path d="M86.1971 63.3323C86.1971 63.3323 86.0444 62.4004 85.3648 62.8132C84.6353 63.2569 85.1674 64.3013 85.1674 64.3013C85.1674 64.3013 85.4416 64.0637 85.7338 63.7819C85.9757 63.5513 86.1174 63.4158 86.1971 63.3323ZM83.5807 65.7133C83.5807 65.7133 83.4772 64.5125 82.7058 65.0577C82.0904 65.4942 82.4957 66.6554 82.4957 66.6554C82.4957 66.6554 82.8494 66.3571 83.0794 66.1552C83.3124 65.9505 83.5807 65.7133 83.5807 65.7133ZM81.086 67.9017C81.086 67.9017 81.0071 66.9045 80.3161 67.28C79.6252 67.6555 80.0744 68.8114 80.0744 68.8114C80.0744 68.8114 80.381 68.554 80.5875 68.3637C80.794 68.1734 81.086 67.9017 81.086 67.9017ZM78.2607 70.4251C78.2607 70.4251 78.2168 69.4307 77.5382 69.7396C76.8331 70.0603 77.2434 71.3124 77.2434 71.3124C77.2434 71.3124 77.5884 71.0146 77.78 70.848C77.9746 70.6838 78.2607 70.4251 78.2607 70.4251Z" fill="#C4DBE9"/>
<defs>
<filter id="filter0_d_11_516" x="0" y="0" width="121" height="122" filterUnits="userSpaceOnUse" color-interpolation-filters="sRGB">
<feFlood flood-opacity="0" result="BackgroundImageFix"/>
<feColorMatrix in="SourceAlpha" type="matrix" values="0 0 0 0 0 0 0 0 0 0 0 0 0 0 0 0 0 0 127 0" result="hardAlpha"/>
<feOffset dx="4" dy="4"/>
<feGaussianBlur stdDeviation="2.5"/>
<feComposite in2="hardAlpha" operator="out"/>
<feColorMatrix type="matrix" values="0 0 0 0 0 0 0 0 0 0 0 0 0 0 0 0 0 0 0.25 0"/>
<feBlend mode="normal" in2="BackgroundImageFix" result="effect1_dropShadow_11_516"/>
<feBlend mode="normal" in="SourceGraphic" in2="effect1_dropShadow_11_516" result="shape"/>
</filter>
</defs>
</svg>
